<?xml version="1.0" encoding="UTF-8"?>
<svg width="98px" height="99px" viewBox="0 0 98 99" version="1.1" xmlns="http://www.w3.org/2000/svg" xmlns:xlink="http://www.w3.org/1999/xlink">
    <!-- Generator: Sketch 54.1 (76490) - https://sketchapp.com -->
    <title>Group 3</title>
    <desc>Created with Sketch.</desc>
    <defs>
        <polygon id="path-1" points="0 0 98 0 98 99 0 99"></polygon>
    </defs>
    <g id="Final" stroke="none" stroke-width="1" fill="none" fill-rule="evenodd">
        <g id="Desktop" transform="translate(-228.000000, -8436.000000)">
            <g id="Footer" transform="translate(-2.000000, 8367.000000)">
                <g id="Group-3" transform="translate(230.000000, 69.000000)">
                    <mask id="mask-2" fill="white">
                        <use xlink:href="#path-1"></use>
                    </mask>
                    <g id="Clip-2"></g>
                    <path d="M96.2773751,49.6391292 C96.2773751,43.2214998 91.6796893,38.5640162 85.3455975,38.5640162 C81.7513407,38.5640162 78.7221048,40.0748079 76.7755386,42.5571311 L78.8943673,44.6796598 C80.2672993,42.52003 82.5704488,41.1818015 85.3455975,41.1818015 C89.8752397,41.1818015 93.1637306,44.7383313 93.1637306,49.6391292 C93.1637306,52.3785716 92.1120681,54.6917828 90.3808301,56.186181 L92.4092209,58.2189767 C94.8174505,56.2560691 96.2773751,53.2249947 96.2773751,49.6391292 L96.2773751,49.6391292 Z M79.4723079,47.6995176 C79.3293301,48.3052148 79.249228,48.95319 79.249228,49.6391292 C79.249228,53.547688 81.7565085,56.2767767 85.3455975,56.2767767 C86.1664283,56.2767767 86.9278285,56.1275095 87.6186011,55.8600363 L79.4723079,47.6995176 Z M80.1449929,45.9324694 L89.1586277,54.9627072 C89.8201157,54.4199956 90.3627425,53.7297423 90.7494718,52.9117923 L81.8426398,43.9902693 C81.1492833,44.4889773 80.5773718,45.1490319 80.1449929,45.9324694 L80.1449929,45.9324694 Z M91.4411057,49.6391292 C91.4411057,45.67535 88.9346865,42.9074346 85.3455975,42.9074346 C84.6806643,42.9074346 84.0544901,43.0032072 83.4731042,43.1835359 L91.3256898,51.0481086 C91.4014853,50.599444 91.4411057,50.1283461 91.4411057,49.6391292 L91.4411057,49.6391292 Z M85.3455975,60.621058 C87.4411707,60.621058 89.3403646,60.1068193 90.9518802,59.1999991 L88.9174602,57.1611637 C87.8623525,57.6986984 86.659099,58.0024098 85.3455975,58.0024098 C80.815094,58.0024098 77.5266031,54.4855696 77.5266031,49.6391292 C77.5266031,48.4389514 77.7264276,47.321604 78.0907628,46.3155599 L75.8125913,44.0334102 C74.9383592,45.6503283 74.4448272,47.5485247 74.4448272,49.6391292 C74.4448272,56.0024011 79.0295933,60.621058 85.3455975,60.621058 L85.3455975,60.621058 Z M98,49.6391292 C98,56.8833367 92.5599506,62.346691 85.3455975,62.346691 C78.0304709,62.346691 72.7222023,57.0024054 72.7222023,49.6391292 C72.7222023,42.2214955 78.0304709,36.8383831 85.3455975,36.8383831 C92.5599506,36.8383831 98,42.341427 98,49.6391292 L98,49.6391292 Z M63.3192543,59.694393 C64.1409463,59.2862808 64.8265511,58.7487461 65.3622874,58.0973196 L63.3278674,56.0602098 C62.943722,56.7996435 62.2417524,57.3397667 61.2882795,57.6607344 L63.3192543,59.694393 Z M63.6060713,53.8979916 L66.259775,56.5563293 C66.5457307,55.8212096 66.7024896,55.0049852 66.7024896,54.107656 C66.7024896,51.2724409 65.5121558,49.263804 59.5854648,48.01272 C57.1393375,47.5459363 55.5416029,47.0066759 54.9085382,45.8539531 L51.8517403,42.7918172 C51.6527772,43.39924 51.5468357,44.0592947 51.5468357,44.763353 C51.5468357,47.1887302 52.3986737,49.6175588 58.574284,50.9523359 C61.3821626,51.4950475 63.2365683,52.2094596 63.6060713,53.8979916 L63.6060713,53.8979916 Z M52.6837682,41.1852528 L54.8189617,43.324175 C55.1247276,42.4975968 55.7612375,41.8893111 56.6742287,41.5381448 L54.6527284,39.5139772 C53.8568757,39.9436598 53.1910812,40.5062162 52.6837682,41.1852528 L52.6837682,41.1852528 Z M61.5199726,60.3328772 L59.1849545,57.9946444 C59.136721,57.9946444 59.095378,58.0024098 59.0462832,58.0024098 C56.4347839,58.0024098 53.653606,56.8410587 51.9619883,55.0438119 C51.6355509,54.6969597 51.6510545,54.1507968 51.9973021,53.8237893 C52.3426884,53.4959191 52.8896218,53.5140382 53.2151979,53.8591648 C54.5760716,55.3052453 56.9197028,56.2767767 59.0462832,56.2767767 C60.980791,56.2767767 61.9609645,55.6943756 61.9609645,54.5468296 C61.9609645,54.0757318 61.9609645,53.3639081 58.2288977,52.6425935 C52.4107321,51.3854698 49.8242108,48.9566413 49.8242108,44.763353 C49.8242108,40.0972412 53.5011537,36.8383831 58.7654954,36.8383831 C62.1185847,36.8383831 65.1529885,37.7564199 67.3114375,39.4251071 C67.687831,39.7158763 67.7575973,40.257725 67.467335,40.6347759 C67.1770727,41.0109639 66.6370298,41.0825776 66.2580523,40.7909457 C64.4277634,39.3750637 61.6974029,38.5640162 58.7654954,38.5640162 C57.9248544,38.5640162 57.1393375,38.6606516 56.4166963,38.8401175 L58.7551596,41.1826644 C61.0273018,41.1869784 63.0238241,41.9013905 64.8575583,43.3690414 C65.228784,43.6667131 65.2890758,44.2102876 64.9927844,44.5821615 C64.6964929,44.9548982 64.1555887,45.017021 63.7817791,44.7176237 C62.2391685,43.4829332 60.6354047,42.9074346 58.7353494,42.9074346 C56.3202293,42.9074346 56.3202293,44.1386738 56.3202293,44.5441976 C56.3202293,45.0549849 56.3202293,45.633072 59.9248219,46.3207368 C65.887688,47.5795861 68.4251145,49.9074651 68.4251145,54.107656 C68.4251145,59.1128547 64.6818506,62.346691 58.8903857,62.346691 C55.2358369,62.346691 51.8775797,61.1844771 49.4357589,59.0740279 C49.0757303,58.763414 49.0352486,58.2181139 49.3470437,57.8574566 C49.6562549,57.4950737 50.2006044,57.4562469 50.5614943,57.7677237 C52.6906587,59.6072485 55.6484056,60.621058 58.8903857,60.621058 C59.8421359,60.621058 60.7198133,60.5201084 61.5199726,60.3328772 L61.5199726,60.3328772 Z M16.7610099,61.6486724 C16.9082943,61.9601492 17.2175055,62.1422035 17.5396363,62.1422035 C17.6636653,62.1422035 17.7885556,62.1145934 17.9082781,62.0585103 C18.338073,61.8548856 18.5215325,61.3397841 18.3165402,60.9092387 L10.1530208,43.6805182 L11.9988134,39.7840388 L22.3595408,61.6486724 C22.5068252,61.9601492 22.8160364,62.1422035 23.1381672,62.1422035 C23.2621962,62.1422035 23.3870865,62.1145934 23.506809,62.0585103 C23.9366039,61.8548856 24.1200634,61.3397841 23.9150711,60.9092387 L12.8394543,37.5329504 C12.6973377,37.2318275 12.3932945,37.0402822 12.0616892,37.0402822 L11.9367989,37.0402822 C11.6043323,37.0402822 11.3011503,37.2318275 11.1590337,37.5329504 L0.0834169427,60.9092387 C-0.120714108,61.3397841 0.062745444,61.8548856 0.492540356,62.0585103 C0.922335267,62.262135 1.4365388,62.0792179 1.63980854,61.6486724 L9.1995479,45.6926064 L11.0479244,49.5925371 L5.68194786,60.9092387 C5.47781681,61.3397841 5.66127636,61.8540228 6.09107127,62.0585103 C6.2107937,62.1145934 6.335684,62.1422035 6.459713,62.1422035 C6.78184385,62.1422035 7.09105502,61.9601492 7.23833945,61.6486724 L12.0013973,51.6046252 L16.7610099,61.6486724 Z M31.2396721,59.1197572 L31.2396721,38.1058606 C31.2396721,37.6295859 30.8546655,37.2430441 30.3783597,37.2430441 C29.9020539,37.2430441 29.5170472,37.6295859 29.5170472,38.1058606 L29.5170472,61.0766251 C29.5170472,61.1223544 29.5359961,61.1611811 29.5428866,61.2043219 C29.552361,61.2664447 29.5566676,61.3277047 29.579923,61.3863762 C29.6031785,61.448499 29.6427989,61.4994052 29.678974,61.5528998 C29.7022294,61.5874125 29.7134265,61.627102 29.7427111,61.6590262 C29.7470177,61.6642031 29.7530468,61.665066 29.7582147,61.6702429 C29.8262584,61.7418566 29.9089444,61.7970769 29.9985209,61.8419433 C30.0131632,61.8488459 30.0252216,61.8635138 30.0398639,61.8695535 C30.1440827,61.9144199 30.2586373,61.9394416 30.3783597,61.9394416 L44.9164525,61.9394416 C45.3927583,61.9394416 45.7777649,61.5537626 45.7777649,61.0766251 C45.7777649,60.6003504 45.3927583,60.2138086 44.9164525,60.2138086 L32.5988232,60.2138086 L35.288702,57.752193 L44.9164525,57.752193 C45.3927583,57.752193 45.7777649,57.366514 45.7777649,56.8893765 C45.7777649,56.4122389 45.3927583,56.0265599 44.9164525,56.0265599 L36.0113431,56.0265599 L36.0113431,38.1058606 C36.0113431,37.6295859 35.6263364,37.2430441 35.1500306,37.2430441 C34.6745862,37.2430441 34.2887182,37.6295859 34.2887182,38.1058606 L34.2887182,56.3294085 L31.2396721,59.1197572 Z M29.6600251,78.0836017 L10.0358823,78.0836017 C9.5595765,78.0836017 9.17456983,78.4701435 9.17456983,78.9464182 C9.17456983,79.4235558 9.5595765,79.8092348 10.0358823,79.8092348 L16.6008058,79.8092348 L16.6008058,97.7307969 C16.6008058,98.2079344 16.9858124,98.5936134 17.4621182,98.5936134 C17.938424,98.5936134 18.3234307,98.2079344 18.3234307,97.7307969 L18.3234307,79.8092348 L21.3440534,79.8092348 L21.3440534,97.7307969 C21.3440534,98.2079344 21.7290601,98.5936134 22.2053659,98.5936134 C22.6816716,98.5936134 23.0666783,98.2079344 23.0666783,97.7307969 L23.0666783,79.8092348 L29.6600251,79.8092348 C30.1363309,79.8092348 30.5213376,79.4235558 30.5213376,78.9464182 C30.5213376,78.4701435 30.1363309,78.0836017 29.6600251,78.0836017 L29.6600251,78.0836017 Z M87.1035362,86.2924382 C87.1035362,79.8748088 82.5058504,75.2173252 76.1708973,75.2173252 C69.8540318,75.2173252 65.2692657,79.8748088 65.2692657,86.2924382 C65.2692657,92.6557101 69.8540318,97.2743669 76.1708973,97.2743669 C82.5058504,97.2743669 87.1035362,92.6557101 87.1035362,86.2924382 L87.1035362,86.2924382 Z M88.8261611,86.2924382 C88.8261611,93.5366457 83.3852504,99 76.1708973,99 C68.8557707,99 63.5466408,93.6557144 63.5466408,86.2924382 C63.5466408,78.8748045 68.8557707,73.4916921 76.1708973,73.4916921 C83.3852504,73.4916921 88.8261611,78.9947359 88.8261611,86.2924382 L88.8261611,86.2924382 Z M82.2664055,86.2924382 C82.2664055,82.328659 79.7599863,79.5607436 76.1708973,79.5607436 C72.5818083,79.5607436 70.0753891,82.328659 70.0753891,86.2924382 C70.0753891,90.2001342 72.5818083,92.9300857 76.1708973,92.9300857 C79.7599863,92.9300857 82.2664055,90.2001342 82.2664055,86.2924382 L82.2664055,86.2924382 Z M83.9890304,86.2924382 C83.9890304,91.1388786 80.7014008,94.6557188 76.1708973,94.6557188 C71.6403938,94.6557188 68.3527642,91.1388786 68.3527642,86.2924382 C68.3527642,81.3916403 71.6403938,77.8351105 76.1708973,77.8351105 C80.7014008,77.8351105 83.9890304,81.3916403 83.9890304,86.2924382 L83.9890304,86.2924382 Z M58.0902264,86.2924382 C58.0902264,79.8748088 53.4934019,75.2173252 47.1601714,75.2173252 C46.8371793,75.2173252 46.5219389,75.23717 46.2084212,75.2613288 L46.2084212,77.8937821 C46.519355,77.8584066 46.8354566,77.8351105 47.1601714,77.8351105 C51.6898136,77.8351105 54.9783045,81.3916403 54.9783045,86.2924382 C54.9783045,91.1388786 51.6898136,94.6557188 47.1601714,94.6557188 C46.8354566,94.6557188 46.519355,94.6332855 46.2084212,94.5979101 L46.2084212,97.2312261 C46.5219389,97.2545222 46.8371793,97.2743669 47.1601714,97.2743669 C53.4934019,97.2743669 58.0902264,92.6557101 58.0902264,86.2924382 L58.0902264,86.2924382 Z M44.4857963,80.1586754 C42.3885005,81.1742105 41.0629406,83.414945 41.0629406,86.2924382 C41.0629406,89.1293789 42.3885005,91.339052 44.4857963,92.340782 L44.4857963,80.1586754 Z M48.8285336,79.7842131 C48.3039944,79.6418483 47.7484478,79.5607436 47.1601714,79.5607436 C46.8320114,79.5607436 46.516771,79.591805 46.2084212,79.6366714 L46.2084212,92.8558835 C46.516771,92.8998871 46.8320114,92.9300857 47.1601714,92.9300857 C47.7303603,92.9300857 48.2704032,92.8541579 48.7803001,92.7221469 L48.7803001,80.0206248 C48.7803001,79.9369316 48.8061395,79.8610037 48.8285336,79.7842131 L48.8285336,79.7842131 Z M50.502925,80.541766 L50.502925,91.9628684 C52.2074624,90.8394813 53.2556796,88.8135881 53.2556796,86.2924382 C53.2556796,83.73505 52.2074624,81.6806838 50.502925,80.541766 L50.502925,80.541766 Z M44.4857963,96.9697927 L44.4857963,94.2001516 C41.3936846,93.1069631 39.3403157,90.1181666 39.3403157,86.2924382 C39.3403157,82.4235688 41.3936846,79.4011225 44.4857963,78.2967174 L44.4857963,75.5253507 C39.5926803,76.6452865 36.2576785,80.823907 36.2576785,86.2924382 C36.2576785,91.7143772 39.5926803,95.8593478 44.4857963,96.9697927 L44.4857963,96.9697927 Z M59.8128513,86.2924382 C59.8128513,93.5366457 54.3736632,99 47.1601714,99 C39.8441835,99 34.5350536,93.6557144 34.5350536,86.2924382 C34.5350536,78.8748045 39.8441835,73.4916921 47.1601714,73.4916921 C54.3736632,73.4916921 59.8128513,78.9947359 59.8128513,86.2924382 L59.8128513,86.2924382 Z M29.6600251,73.8963531 L10.0358823,73.8963531 C9.5595765,73.8963531 9.17456983,74.2820321 9.17456983,74.7591696 C9.17456983,75.2363071 9.5595765,75.6219861 10.0358823,75.6219861 L29.6600251,75.6219861 C30.1363309,75.6219861 30.5213376,75.2363071 30.5213376,74.7591696 C30.5213376,74.2820321 30.1363309,73.8963531 29.6600251,73.8963531 L29.6600251,73.8963531 Z M72.801443,19.2162183 L74.2561997,19.2162183 C78.835798,19.2162183 81.2569473,17.0505488 81.2569473,12.9530331 C81.2569473,7.77613397 77.4499463,6.68984796 74.2561997,6.68984796 L72.801443,6.68984796 L72.801443,19.2162183 Z M66.2503005,24.5052837 L66.2503005,1.26532044 C66.2503005,0.7881829 66.6353072,0.402503911 67.111613,0.402503911 C67.5870575,0.402503911 67.9729254,0.7881829 67.9729254,1.26532044 L67.9729254,22.4224446 L71.0788181,19.3128538 L71.0788181,5.82703143 C71.0788181,5.35075671 71.4638248,4.9642149 71.9401306,4.9642149 L74.2561997,4.9642149 C79.7996067,4.9642149 82.9795722,7.87622069 82.9795722,12.9530331 C82.9795722,18.0298456 79.7996067,20.9418514 74.2561997,20.9418514 L71.9401306,20.9418514 C71.9246269,20.9418514 71.9117073,20.934086 71.8970649,20.9332232 L67.7205609,25.1152949 C67.5551889,25.2800929 67.3346929,25.3681002 67.111613,25.3681002 C67.0005037,25.3681002 66.8885331,25.3465298 66.7817303,25.3016633 C66.4595995,25.1687896 66.2503005,24.8538615 66.2503005,24.5052837 L66.2503005,24.5052837 Z M71.9401306,2.31536816 L74.4120973,2.31536816 C81.834888,2.31536816 86.0932167,6.18164903 86.0932167,12.9228346 C86.0932167,19.6830021 81.834888,23.5604996 74.4120973,23.5604996 L71.9401306,23.5604996 C71.4638248,23.5604996 71.0788181,23.9470414 71.0788181,24.4233161 C71.0788181,24.8995908 71.4638248,25.2861326 71.9401306,25.2861326 L74.4120973,25.2861326 C82.8047258,25.2861326 87.8158416,20.6640245 87.8158416,12.9228346 C87.8158416,5.20062663 82.8047258,0.589735098 74.4120973,0.589735098 L71.9401306,0.589735098 C71.4638248,0.589735098 71.0788181,0.976276903 71.0788181,1.45255163 C71.0788181,1.92882635 71.4638248,2.31536816 71.9401306,2.31536816 L71.9401306,2.31536816 Z M57.5820521,19.7589299 C57.747424,19.9245907 57.9670587,20.0117352 58.191,20.0117352 C58.3021093,20.0117352 58.4140799,19.9901648 58.5208826,19.9461611 C58.8430135,19.8124246 59.0523124,19.4974965 59.0523124,19.1489186 L59.0523124,1.04702786 C59.0523124,0.570753134 58.6673057,0.184211329 58.191,0.184211329 C57.7155555,0.184211329 57.3296875,0.570753134 57.3296875,1.04702786 L57.3296875,17.0660795 L54.0179411,13.7476872 L54.0179411,1.04702786 C54.0179411,0.570753134 53.6320732,0.184211329 53.1566287,0.184211329 C52.6803229,0.184211329 52.2953162,0.570753134 52.2953162,1.04702786 L52.2953162,12.0220541 L40.5461531,0.252373835 C40.20938,-0.0841246116 39.6641692,-0.0841246116 39.3282573,0.252373835 C38.9914842,0.589735098 38.9914842,1.13589796 39.3282573,1.47239641 L57.5820521,19.7589299 Z M39.7528844,25.2861326 C40.2291902,25.2861326 40.6141968,24.8995908 40.6141968,24.4233161 L40.6141968,8.84516365 L43.9629796,12.1997943 L43.9664249,24.4233161 C43.9664249,24.9004536 44.3522928,25.2861326 44.8277373,25.2861326 C45.3031818,25.2861326 45.6890498,24.8995908 45.6890498,24.4224533 L45.6856045,13.9254274 L57.1780965,25.4379883 C57.3469138,25.6062376 57.5674097,25.6907936 57.7870444,25.6907936 C58.0075404,25.6907936 58.2280364,25.6062376 58.3968536,25.4379883 C58.7327655,25.1014899 58.7327655,24.555327 58.3968536,24.2179658 L40.3618323,6.15231326 C40.1163582,5.90554774 39.7459939,5.83307115 39.4230017,5.96508208 C39.1008708,6.09881864 38.8915719,6.41288386 38.8915719,6.76232455 L38.8915719,24.4233161 C38.8915719,24.8995908 39.2765786,25.2861326 39.7528844,25.2861326 L39.7528844,25.2861326 Z M10.2684366,23.9608464 L21.3431921,0.584558199 C21.4853087,0.28343523 21.789352,0.0918899604 22.1209572,0.0918899604 L22.2458475,0.0918899604 C22.5783142,0.0918899604 22.8814961,0.28343523 23.0236127,0.584558199 L34.1000908,23.9608464 C34.3042218,24.3913919 34.1207623,24.9056305 33.6909674,25.110118 C33.5712449,25.1670639 33.4463546,25.1938113 33.3223256,25.1938113 C33.0001948,25.1938113 32.6909836,25.011757 32.5436992,24.701143 L24.9977408,8.77613833 L23.0460068,12.8788309 L28.4955307,23.9496298 C28.7065522,24.376724 28.5308445,24.8944139 28.1044948,25.1049411 C27.9813271,25.1653383 27.8521303,25.1938113 27.7237947,25.1938113 C27.4059704,25.1938113 27.1010658,25.0169339 26.9511975,24.7123596 L22.1028697,14.8624461 L17.4216365,24.7020058 C17.2743521,25.0126198 16.9660022,25.1938113 16.6438714,25.1938113 C16.5198424,25.1938113 16.3940908,25.1670639 16.273507,25.110118 C15.8445734,24.9047677 15.6619752,24.3896662 15.8678289,23.9599836 L24.0459906,6.76663863 L22.1838331,2.83564652 L11.8239669,24.701143 C11.6206972,25.1308256 11.107355,25.3154684 10.6766987,25.110118 C10.2469038,24.9056305 10.0634443,24.3913919 10.2684366,23.9608464 L10.2684366,23.9608464 Z" id="Fill-1" fill="#FFFFFF" mask="url(#mask-2)"></path>
                </g>
            </g>
        </g>
    </g>
</svg>