<?xml version="1.0" encoding="utf-8"?>
<!-- Generator: Adobe Illustrator 23.0.3, SVG Export Plug-In . SVG Version: 6.00 Build 0)  -->
<svg version="1.1" id="Layer_1" xmlns="http://www.w3.org/2000/svg" xmlns:xlink="http://www.w3.org/1999/xlink" x="0px" y="0px"
	 viewBox="0 0 36 36" style="enable-background:new 0 0 36 36;" xml:space="preserve">
<style type="text/css">
	.st0{fill:#FFFFFF;}
</style>
<title>Artboard 1</title>
<path class="st0" d="M6,12L0,6l6-6l6,6L6,12z M1.4,6L6,10.6L10.6,6L6,1.4L1.4,6z"/>
<path class="st0" d="M18,12l-6-6l6-6l6,6L18,12z M13.4,6l4.6,4.6L22.6,6L18,1.4L13.4,6z"/>
<path class="st0" d="M18,36l-6-6l6-6l6,6L18,36z M13.4,30l4.6,4.6l4.6-4.6L18,25.4L13.4,30z"/>
<path class="st0" d="M30,12l-6-6l6-6l6,6L30,12z M25.4,6l4.6,4.6L34.6,6L30,1.4L25.4,6z"/>
<path class="st0" d="M6,24l-6-6l6-6l6,6L6,24z M1.4,18L6,22.6l4.6-4.6L6,13.4L1.4,18z"/>
<path class="st0" d="M30,24l-6-6l6-6l6,6L30,24z M25.4,18l4.6,4.6l4.6-4.6L30,13.4L25.4,18z"/>
<path class="st0" d="M6,36l-6-6l6-6l6,6L6,36z M1.4,30L6,34.6l4.6-4.6L6,25.4L1.4,30z"/>
<path class="st0" d="M30,36l-6-6l6-6l6,6L30,36z M25.4,30l4.6,4.6l4.6-4.6L30,25.4L25.4,30z"/>
</svg>
