<?xml version="1.0" encoding="UTF-8"?>
<svg width="192px" height="192px" viewBox="0 0 192 192" version="1.1" xmlns="http://www.w3.org/2000/svg" xmlns:xlink="http://www.w3.org/1999/xlink">
    <!-- Generator: Sketch 54.1 (76490) - https://sketchapp.com -->
    <title>Artboard Copy 6</title>
    <desc>Created with Sketch.</desc>
    <g id="Artboard-Copy-6" stroke="none" stroke-width="1" fill="none" fill-rule="evenodd">
        <g id="Group" transform="translate(4.000000, 13.000000)">
            <polygon id="Fill-1" fill-opacity="0.1" fill="#00A550" points="96.4053 0.0001 0.0003 81.9331 50.7083 166.2221 163.4043 123.9441 184.5563 6.1761"></polygon>
            <polygon id="Fill-2" fill-opacity="0.2" fill="#00A550" points="58.5116 154.5986 14.4166 81.3046 98.2476 10.0576 174.9006 15.4276 156.5076 117.8356"></polygon>
            <polygon id="Fill-3" fill-opacity="0.3" fill="#00A550" points="65.2968 144.4912 26.9538 80.7572 99.8498 18.8032 166.5048 23.4732 150.5108 112.5232"></polygon>
            <polygon id="Fill-4" fill-opacity="0.4" fill="#00A550" points="71.1968 135.7022 37.8548 80.2812 101.2428 26.4082 159.2038 30.4692 145.2958 107.9042"></polygon>
            <polygon id="Fill-5" fill="#00A550" points="76.3273 128.0596 47.3343 79.8676 102.4543 33.0216 152.8553 36.5526 140.7613 103.8876"></polygon>
            <path d="M71.246,94.2327 L70.57,92.6387 L73.202,91.5217 L72.746,90.4457 L70.113,91.5637 L69.472,90.0527 L72.528,88.7557 L72.048,87.6237 L67.787,89.4327 L70.521,95.8747 L74.874,94.0277 L74.394,92.8967 L71.246,94.2327 Z M77.912,85.1347 L79.678,89.2947 L79.577,89.3377 L75.076,86.3387 L73.798,86.8817 L76.532,93.3237 L77.737,92.8127 L75.959,88.6247 L76.061,88.5817 L80.647,91.5767 L81.842,91.0697 L79.108,84.6277 L77.912,85.1347 Z M85.468,81.9277 L80.674,83.9627 L81.158,85.1027 L82.934,84.3487 L85.185,89.6507 L86.417,89.1277 L84.167,83.8257 L85.952,83.0677 L85.468,81.9277 Z M90.956,79.5977 L92.065,82.2127 L89.468,83.3147 L88.359,80.7007 L87.108,81.2317 L89.843,87.6737 L91.093,87.1427 L89.945,84.4367 L92.542,83.3347 L93.69,86.0407 L94.941,85.5097 L92.206,79.0677 L90.956,79.5977 Z M99.533,75.9567 L98.237,76.5077 L99.858,80.3277 C100.261,81.2757 100.019,82.0627 99.19,82.4147 C98.352,82.7707 97.59,82.4097 97.188,81.4617 L95.566,77.6407 L94.26,78.1957 L95.862,81.9697 C96.679,83.8927 98.229,84.2227 99.684,83.6047 C101.139,82.9877 101.952,81.6547 101.135,79.7307 L99.533,75.9567 Z M107.924,77.9897 C107.452,76.8757 106.442,76.6957 105.031,76.7517 C104.069,76.7897 103.609,76.7027 103.425,76.2707 C103.249,75.8557 103.473,75.4347 103.979,75.2197 C104.67,74.9267 105.163,75.2177 105.408,75.6677 L106.549,75.1837 C106.094,74.1377 104.926,73.5597 103.526,74.1537 C102.339,74.6577 101.717,75.7247 102.213,76.8937 C102.663,77.9527 103.734,78.0737 104.899,78.0027 C105.976,77.9257 106.444,78.0317 106.651,78.5197 C106.866,79.0257 106.531,79.4397 106.015,79.6587 C105.196,80.0067 104.637,79.6897 104.351,79.0397 L103.118,79.5627 C103.663,80.8197 104.903,81.3897 106.44,80.7367 C107.73,80.1897 108.436,79.1957 107.924,77.9897 L107.924,77.9897 Z M108.987,71.9447 L107.69,72.4947 L110.425,78.9377 L111.721,78.3867 L108.987,71.9447 Z M117.843,75.7887 L119.168,75.2257 L114.261,69.7057 L112.623,70.4007 L113.177,77.7687 L114.502,77.2067 L114.351,75.5977 L116.79,74.5627 L117.843,75.7887 Z M114.239,74.3867 L113.961,71.4287 L114.062,71.3857 L115.997,73.6397 L114.239,74.3867 Z M124.19,71.0857 C123.717,69.9717 122.707,69.7917 121.296,69.8467 C120.335,69.8857 119.874,69.7987 119.69,69.3667 C119.514,68.9517 119.738,68.5307 120.244,68.3157 C120.935,68.0227 121.428,68.3137 121.673,68.7637 L122.814,68.2797 C122.359,67.2337 121.191,66.6557 119.792,67.2497 C118.604,67.7537 117.982,68.8207 118.478,69.9897 C118.928,71.0477 119.999,71.1687 121.164,71.0987 C122.241,71.0217 122.709,71.1277 122.917,71.6157 C123.131,72.1217 122.796,72.5357 122.28,72.7547 C121.461,73.1027 120.903,72.7857 120.616,72.1357 L119.383,72.6587 C119.928,73.9157 121.168,74.4857 122.706,73.8327 C123.995,73.2857 124.701,72.2917 124.19,71.0857 L124.19,71.0857 Z M128.216,63.7817 L123.421,65.8177 L123.905,66.9577 L125.682,66.2037 L127.932,71.5057 L129.165,70.9827 L126.914,65.6807 L128.7,64.9227 L128.216,63.7817 Z M131.152,62.5357 L129.855,63.0857 L132.59,69.5287 L133.887,68.9777 L131.152,62.5357 Z M140.676,63.6527 L139.369,64.2077 C139.425,64.8797 139.054,65.5147 138.327,65.8237 C137.223,66.2927 136.173,65.7387 135.629,64.4587 C135.113,63.2427 135.359,62.0307 136.427,61.5777 C137.191,61.2527 137.847,61.4417 138.267,61.9697 L139.583,61.4117 C138.69,59.9977 137.225,59.8497 135.909,60.4077 C134.086,61.1817 133.462,63.0857 134.279,65.0097 C135.099,66.9437 136.872,67.8197 138.832,66.9877 C140.222,66.3977 141.013,65.1397 140.676,63.6527 L140.676,63.6527 Z" id="Fill-6" fill="#FFFFFF"></path>
        </g>
    </g>
</svg>