<?xml version="1.0" encoding="UTF-8"?>
<svg width="192px" height="192px" viewBox="0 0 192 192" version="1.1" xmlns="http://www.w3.org/2000/svg" xmlns:xlink="http://www.w3.org/1999/xlink">
    <!-- Generator: Sketch 54.1 (76490) - https://sketchapp.com -->
    <title>Artboard</title>
    <desc>Created with Sketch.</desc>
    <g id="Artboard" stroke="none" stroke-width="1" fill="none" fill-rule="evenodd">
        <g id="Group" transform="translate(0.000000, 10.000000)">
            <polygon id="Fill-1" fill-opacity="0.1" fill="#00ADEE" points="111.8439 0.0004 15.4719 69.4824 -0.0001 158.2004 87.8179 171.6344 191.4189 134.2474 192.7449 19.2364"></polygon>
            <polygon id="Fill-2" fill-opacity="0.2" fill="#00ADEE" points="178.9576 128.0684 88.8686 160.5784 12.5056 148.8974 25.9596 71.7514 109.7616 11.3324 180.1096 28.0594"></polygon>
            <polygon id="Fill-3" fill-opacity="0.3" fill="#00ADEE" points="168.1213 122.6955 89.7833 150.9655 23.3803 140.8075 35.0793 73.7245 107.9503 21.1855 169.1233 35.7305"></polygon>
            <polygon id="Fill-4" fill-opacity="0.4" fill="#00ADEE" points="158.6983 118.0234 90.5783 142.6054 32.8373 133.7734 43.0093 75.4394 106.3763 29.7544 159.5693 42.4024"></polygon>
            <polygon id="Fill-5" fill="#00ADEE" points="150.5044 113.9607 91.2694 135.3367 41.0594 127.6557 49.9054 76.9317 105.0064 37.2047 151.2624 48.2027"></polygon>
            <path d="M70.3257,105.2697 L69.5977,104.2307 L65.7897,106.8967 L69.8047,112.6297 L70.9087,111.8567 L69.3257,109.5957 L71.6687,107.9547 L70.9757,106.9647 L68.6327,108.6057 L67.6227,107.1627 L70.3257,105.2697 Z M79.2727,105.9997 L76.4007,104.5807 C76.8487,103.8277 76.8537,102.9467 76.3257,102.1927 C75.5507,101.0867 74.2837,100.9487 73.1537,101.7407 L71.0237,103.2317 L75.0387,108.9647 L76.1027,108.2197 L74.6227,106.1067 L75.4667,105.5157 L78.0937,106.8257 L79.2727,105.9997 Z M72.7987,103.5017 L73.7577,102.8297 C74.3307,102.4287 74.8857,102.5047 75.2237,102.9887 C75.5457,103.4477 75.4507,104.0267 74.8767,104.4287 L73.9177,105.0997 L72.7987,103.5017 Z M81.0737,103.2387 L80.0807,101.8207 L82.4237,100.1797 L81.7537,99.2227 L79.4107,100.8627 L78.4697,99.5187 L81.1887,97.6147 L80.4837,96.6077 L76.6927,99.2627 L80.7067,104.9957 L84.5807,102.2837 L83.8757,101.2767 L81.0737,103.2387 Z M86.4227,99.4927 L85.4297,98.0747 L87.7727,96.4347 L87.1027,95.4767 L84.7597,97.1177 L83.8187,95.7727 L86.5377,93.8687 L85.8337,92.8627 L82.0417,95.5177 L86.0557,101.2507 L89.9297,98.5377 L89.2247,97.5317 L86.4227,99.4927 Z M91.8327,95.6077 L88.5687,90.9467 L87.3987,91.7657 L91.4127,97.4987 L95.3687,94.7297 L94.6177,93.6577 L91.8327,95.6077 Z M95.2617,86.2607 L95.4387,89.1267 L95.3487,89.1907 L92.7147,88.0437 L91.4127,88.9557 L95.6597,90.7667 L97.4257,93.2887 L98.5877,92.4757 L96.8217,89.9527 L96.5637,85.3487 L95.2617,86.2607 Z M104.9747,83.3777 L105.5877,84.2527 L107.0877,83.2027 L107.6277,83.9737 C107.5687,84.3087 107.3447,84.9657 106.7137,85.4077 C105.5667,86.2107 104.4797,85.7747 103.7347,84.7097 C102.9487,83.5877 102.9297,82.3057 103.9547,81.5887 C104.6347,81.1117 105.3747,81.1927 105.7887,81.5747 L106.9347,80.7717 C106.0967,79.8197 104.7157,79.5187 103.1587,80.6087 C101.5767,81.7167 101.3747,83.7617 102.6257,85.5477 C103.7727,87.1857 105.5507,87.7217 107.1567,86.5977 C108.0577,85.9667 108.2927,85.1677 108.3367,84.7957 L108.4267,84.7327 L108.9837,85.1967 L109.7367,84.6687 L107.5627,81.5657 L104.9747,83.3777 Z M108.6877,76.8597 L107.5337,77.6677 L111.5477,83.4007 L112.7017,82.5927 L108.6877,76.8597 Z M113.9627,73.1657 L115.7857,78.6277 L115.6957,78.6907 L111.1697,75.1217 L109.9827,75.9527 L115.8067,80.4187 L117.3467,79.3407 L115.1417,72.3397 L113.9627,73.1657 Z M120.8107,75.4147 L119.8177,73.9967 L122.1607,72.3557 L121.4897,71.3987 L119.1477,73.0397 L118.2057,71.6947 L120.9257,69.7907 L120.2207,68.7837 L116.4287,71.4387 L120.4437,77.1717 L124.3167,74.4597 L123.6117,73.4527 L120.8107,75.4147 Z M125.4397,65.1297 L128.0317,68.8317 L127.9417,68.8947 L122.9157,66.8967 L121.7777,67.6937 L125.7927,73.4267 L126.8647,72.6757 L124.2557,68.9497 L124.3457,68.8867 L129.4537,70.8627 L130.5177,70.1177 L126.5037,64.3847 L125.4397,65.1297 Z" id="Fill-6" fill="#FFFFFF"></path>
        </g>
    </g>
</svg>