<?xml version="1.0" encoding="UTF-8"?>
<svg width="192px" height="192px" viewBox="0 0 192 192" version="1.1" xmlns="http://www.w3.org/2000/svg" xmlns:xlink="http://www.w3.org/1999/xlink">
    <!-- Generator: Sketch 54.1 (76490) - https://sketchapp.com -->
    <title>Artboard Copy 7</title>
    <desc>Created with Sketch.</desc>
    <g id="Artboard-Copy-7" stroke="none" stroke-width="1" fill="none" fill-rule="evenodd">
        <g id="Group" transform="translate(-5.000000, 9.000000)">
            <polygon id="Fill-1" fill-opacity="0.1" fill="#BE00DA" points="84.7782 -0.0004 0.0002 97.9636 91.4572 174.6766 202.5292 132.5056"></polygon>
            <polygon id="Fill-2" fill-opacity="0.2" fill="#BE00DA" points="189.3203 126.614 92.7363 163.285 13.2083 96.578 86.9283 11.392"></polygon>
            <polygon id="Fill-3" fill-opacity="0.3" fill="#BE00DA" points="177.8348 121.4911 93.8488 153.3791 24.6938 95.3721 88.7988 21.2981"></polygon>
            <polygon id="Fill-4" fill-opacity="0.4" fill="#BE00DA" points="167.8473 117.0364 94.8163 144.7654 34.6813 94.3244 90.4243 29.9124"></polygon>
            <polygon id="Fill-5" fill="#BE00DA" points="159.1626 113.1627 95.6566 137.2747 43.3666 93.4137 91.8386 37.4027"></polygon>
            <path d="M79.383,77.45 L78.163,76.746 L74.664,82.807 L75.884,83.511 L79.383,77.45 Z M85.178,80.796 L82.918,84.709 L82.823,84.654 L82.509,79.255 L81.307,78.561 L77.807,84.622 L78.941,85.276 L81.215,81.336 L81.31,81.391 L81.678,86.857 L82.803,87.506 L86.302,81.445 L85.178,80.796 Z M91.609,85.974 L92.243,84.875 L88.217,82.551 L84.718,88.612 L85.886,89.286 L87.266,86.896 L89.743,88.326 L90.347,87.279 L87.87,85.849 L88.751,84.324 L91.609,85.974 Z M92.99,93.503 C94.74,94.513 96.821,93.926 97.846,92.15 C98.871,90.375 98.339,88.279 96.581,87.264 C94.813,86.243 92.741,86.835 91.716,88.611 C90.69,90.387 91.214,92.478 92.99,93.503 L92.99,93.503 Z M93.644,92.369 C92.579,91.754 92.281,90.45 92.936,89.315 C93.591,88.181 94.869,87.787 95.926,88.397 C96.974,89.002 97.273,90.306 96.617,91.441 C95.962,92.576 94.692,92.975 93.644,92.369 L93.644,92.369 Z M102.236,98.726 L102.309,95.523 C103.181,95.611 103.982,95.243 104.442,94.446 C105.117,93.277 104.706,92.07 103.511,91.38 L101.259,90.08 L97.76,96.141 L98.885,96.791 L100.175,94.557 L101.067,95.072 L100.99,98.006 L102.236,98.726 Z M101.765,91.803 L102.779,92.388 C103.385,92.738 103.55,93.272 103.255,93.784 C102.975,94.269 102.41,94.428 101.803,94.078 L100.789,93.492 L101.765,91.803 Z M113.72,97.275 L112.18,96.385 L108.193,99.51 L108.097,99.455 L108.793,94.43 L107.252,93.54 L103.753,99.601 L104.886,100.256 L107.296,96.082 L107.392,96.137 L106.711,100.616 L107.863,101.282 L111.411,98.457 L111.506,98.512 L109.096,102.686 L110.221,103.336 L113.72,97.275 Z M113.892,104.037 L114.758,102.537 L117.235,103.967 L117.819,102.955 L115.342,101.525 L116.163,100.104 L119.038,101.764 L119.653,100.7 L115.644,98.385 L112.145,104.446 L116.24,106.811 L116.854,105.747 L113.892,104.037 Z M123.29,102.8 L121.299,101.65 L117.8,107.711 L119.791,108.861 C121.662,109.941 123.478,109.513 124.599,107.573 C125.704,105.658 125.162,103.88 123.29,102.8 L123.29,102.8 Z M120.434,107.767 L119.628,107.302 L121.859,103.438 L122.664,103.904 C123.791,104.554 124.108,105.684 123.433,106.854 C122.723,108.084 121.552,108.412 120.434,107.767 L120.434,107.767 Z" id="Fill-6" fill="#FFFFFF"></path>
        </g>
    </g>
</svg>