<?xml version="1.0" encoding="UTF-8"?>
<svg width="192px" height="192px" viewBox="0 0 192 192" version="1.1" xmlns="http://www.w3.org/2000/svg" xmlns:xlink="http://www.w3.org/1999/xlink">
    <!-- Generator: Sketch 54.1 (76490) - https://sketchapp.com -->
    <title>Artboard Copy 5</title>
    <desc>Created with Sketch.</desc>
    <g id="Artboard-Copy-5" stroke="none" stroke-width="1" fill="none" fill-rule="evenodd">
        <g id="Group" transform="translate(10.000000, 0.000000)">
            <polygon id="Fill-1" fill-opacity="0.1" fill="#EB008B" points="108.8064 -0.0001 25.6614 40.7099 0.0004 112.3759 53.4364 191.0689 130.3404 184.2299 172.3814 117.5079 172.3814 117.5029 151.8474 42.7129"></polygon>
            <polygon id="Fill-2" fill-opacity="0.2" fill="#EB008B" points="57.7087 178.608 11.2427 110.179 33.5577 47.861 105.8567 12.461 143.2827 49.603 161.1397 114.641 124.5817 172.661"></polygon>
            <polygon id="Fill-3" fill-opacity="0.3" fill="#EB008B" points="61.4237 167.7723 21.0177 108.2683 40.4227 54.0793 103.2917 23.2963 135.8367 55.5943 151.3637 112.1483 119.5747 162.6013"></polygon>
            <polygon id="Fill-4" fill-opacity="0.4" fill="#EB008B" points="64.6542 158.3499 29.5192 106.6079 46.3922 59.4859 101.0612 32.7189 129.3602 60.8039 142.8632 109.9819 115.2202 153.8529"></polygon>
            <polygon id="Fill-5" fill="#EB008B" points="67.4634 150.1566 36.9114 105.1636 51.5834 64.1876 99.1214 40.9116 123.7294 65.3336 135.4714 108.0976 111.4334 146.2466"></polygon>
            <path d="M61.026,96.7659 L60.267,93.6539 C61.132,93.5129 61.81,92.9499 62.049,92.0609 C62.398,90.7569 61.689,89.6979 60.356,89.3409 L57.845,88.6679 L56.033,95.4279 L57.288,95.7639 L57.956,93.2719 L58.951,93.5389 L59.636,96.3939 L61.026,96.7659 Z M58.779,90.2009 L59.909,90.5039 C60.586,90.6849 60.884,91.1579 60.731,91.7289 C60.586,92.2699 60.081,92.5699 59.404,92.3879 L58.274,92.0849 L58.779,90.2009 Z M64.3,96.3709 L64.748,94.6989 L67.51,95.4389 L67.813,94.3099 L65.05,93.5699 L65.475,91.9849 L68.682,92.8439 L69,91.6569 L64.529,90.4589 L62.717,97.2189 L67.285,98.4429 L67.603,97.2559 L64.3,96.3709 Z M75.008,93.2669 L71.996,98.1739 L71.889,98.1459 L71.715,92.3839 L70.315,92.0089 L70.638,99.3409 L72.453,99.8279 L76.399,93.6389 L75.008,93.2669 Z M77.687,99.9579 L78.135,98.2859 L80.898,99.0259 L81.2,97.8969 L78.438,97.1569 L78.863,95.5719 L82.069,96.4309 L82.387,95.2439 L77.916,94.0459 L76.105,100.8059 L80.673,102.0299 L80.991,100.8429 L77.687,99.9579 Z M87.405,103.8339 L86.646,100.7219 C87.511,100.5809 88.189,100.0179 88.428,99.1289 C88.777,97.8249 88.068,96.7659 86.735,96.4089 L84.224,95.7359 L82.412,102.4959 L83.667,102.8329 L84.335,100.3409 L85.33,100.6069 L86.015,103.4619 L87.405,103.8339 Z M85.158,97.2689 L86.289,97.5719 C86.965,97.7529 87.263,98.2269 87.11,98.7969 C86.965,99.3379 86.46,99.6379 85.783,99.4569 L84.653,99.1539 L85.158,97.2689 Z M94.123,103.7199 C94.437,102.5509 93.752,101.7879 92.606,100.9629 C91.824,100.4009 91.515,100.0489 91.636,99.5949 C91.753,99.1599 92.188,98.9659 92.72,99.1089 C93.445,99.3029 93.654,99.8349 93.57,100.3409 L94.767,100.6619 C95.053,99.5579 94.488,98.3829 93.02,97.9889 C91.773,97.6559 90.627,98.1139 90.298,99.3399 C90,100.4509 90.77,101.2059 91.732,101.8679 C92.627,102.4699 92.931,102.8419 92.794,103.3539 C92.652,103.8849 92.133,104.0049 91.592,103.8599 C90.731,103.6289 90.487,103.0359 90.661,102.3469 L89.368,102.0009 C89.023,103.3269 89.65,104.5389 91.263,104.9709 C92.615,105.3339 93.784,104.9849 94.123,103.7199 L94.123,103.7199 Z M98.682,99.6099 L97.322,99.2459 L95.51,106.0059 L96.871,106.3709 L98.682,99.6099 Z M103.536,104.3369 L103.559,104.2499 C104.153,104.1919 104.699,103.8929 104.909,103.1099 C105.214,101.9709 104.421,101.1479 103.242,100.8319 L100.828,100.1849 L99.016,106.9459 L101.653,107.6519 C102.793,107.9569 104.035,107.7219 104.395,106.3789 C104.67,105.3549 104.15,104.7079 103.536,104.3369 L103.536,104.3369 Z M101.785,101.6309 L102.897,101.9289 C103.418,102.0689 103.715,102.4689 103.586,102.9529 C103.451,103.4549 103.037,103.6859 102.438,103.5259 L101.355,103.2359 L101.785,101.6309 Z M101.699,106.4749 L100.568,106.1719 L101.071,104.2969 L102.24,104.6099 C102.975,104.8069 103.269,105.3309 103.122,105.8819 C102.974,106.4329 102.462,106.6799 101.699,106.4749 L101.699,106.4749 Z M107.487,107.8599 L108.96,102.3639 L107.58,101.9939 L105.768,108.7549 L110.432,110.0039 L110.771,108.7399 L107.487,107.8599 Z M113.619,109.5859 L114.067,107.9139 L116.83,108.6539 L117.132,107.5249 L114.37,106.7849 L114.794,105.1999 L118.001,106.0589 L118.319,104.8719 L113.848,103.6739 L112.037,110.4339 L116.604,111.6579 L116.922,110.4709 L113.619,109.5859 Z" id="Fill-6" fill="#FFFFFF"></path>
        </g>
    </g>
</svg>