<?xml version="1.0" encoding="UTF-8"?>
<svg width="184px" height="147px" viewBox="0 0 184 147" version="1.1" xmlns="http://www.w3.org/2000/svg" xmlns:xlink="http://www.w3.org/1999/xlink">
    <!-- Generator: Sketch 54.1 (76490) - https://sketchapp.com -->
    <title>Group</title>
    <desc>Created with Sketch.</desc>
    <g id="Symbols" stroke="none" stroke-width="1" fill="none" fill-rule="evenodd">
        <g id="S">
            <g id="Group">
                <polygon id="Fill-1" fill-opacity="0.1" fill="#F6931D" points="42.1173 146.084 183.9923 71.306 0.0003 0"></polygon>
                <polygon id="Fill-2" fill-opacity="0.2" fill="#F6931D" points="168.9133 69.2392 45.5433 134.2642 8.9203 7.2342"></polygon>
                <polygon id="Fill-3" fill-opacity="0.3" fill="#F6931D" points="155.8012 67.4422 48.5232 123.9852 16.6762 13.5242"></polygon>
                <polygon id="Fill-4" fill-opacity="0.4" fill="#F6931D" points="144.3994 65.8797 51.1144 115.0477 23.4214 18.9947"></polygon>
                <polygon id="Fill-5" fill="#F6931D" points="134.4848 64.5209 53.3668 107.2759 29.2868 23.7519"></polygon>
                <path d="M55.8171,59.8078 C56.3571,58.7248 55.8381,57.8398 54.8801,56.8038 C54.2261,56.0968 53.9921,55.6908 54.2021,55.2698 C54.4031,54.8668 54.8681,54.7638 55.3611,55.0088 C56.0321,55.3438 56.1321,55.9078 55.9491,56.3858 L57.0581,56.9388 C57.5571,55.9148 57.2391,54.6508 55.8781,53.9718 C54.7231,53.3968 53.5081,53.6168 52.9421,54.7528 C52.4281,55.7828 53.0321,56.6758 53.8431,57.5158 C54.6001,58.2848 54.8241,58.7088 54.5881,59.1838 C54.3421,59.6758 53.8101,59.6898 53.3081,59.4398 C52.5111,59.0428 52.3901,58.4118 52.6981,57.7718 L51.5001,57.1748 C50.8971,58.4048 51.2701,59.7188 52.7641,60.4638 C54.0181,61.0888 55.2331,60.9798 55.8171,59.8078 L55.8171,59.8078 Z M62.2501,57.2608 L59.8431,56.0608 L56.7201,62.3238 L57.8831,62.9038 L58.9851,60.6928 L60.1931,61.2958 C61.5811,61.9878 62.7551,61.6018 63.3851,60.3398 C63.9691,59.1668 63.6101,57.9388 62.2501,57.2608 L62.2501,57.2608 Z M60.6431,60.1698 L59.5241,59.6118 L60.4661,57.7218 L61.6211,58.2978 C62.2751,58.6238 62.4361,59.1968 62.1691,59.7338 C61.8781,60.3158 61.3421,60.5178 60.6431,60.1698 L60.6431,60.1698 Z M64.4811,64.8208 L65.2531,63.2708 L67.8131,64.5468 L68.3341,63.5008 L65.7751,62.2248 L66.5071,60.7558 L69.4781,62.2378 L70.0261,61.1378 L65.8841,59.0728 L62.7611,65.3358 L66.9931,67.4458 L67.5411,66.3468 L64.4811,64.8208 Z M74.9231,68.8868 L73.6531,68.2528 C73.1791,68.7328 72.4551,68.8628 71.7481,68.5108 C70.6741,67.9748 70.4131,66.8168 71.0331,65.5728 C71.6231,64.3908 72.7041,63.7898 73.7421,64.3078 C74.4851,64.6778 74.7681,65.2998 74.6391,65.9618 L75.9181,66.5998 C76.4131,65.0028 75.5751,63.7928 74.2951,63.1548 C72.5231,62.2708 70.6701,63.0328 69.7371,64.9038 C68.8001,66.7838 69.2841,68.6998 71.1901,69.6508 C72.5421,70.3238 74.0121,70.1088 74.9231,68.8868 L74.9231,68.8868 Z M79.9061,66.0638 L78.6461,65.4358 L75.5231,71.6988 L76.7841,72.3278 L79.9061,66.0638 Z M85.4881,70.2648 L86.0541,69.1288 L81.8941,67.0548 L78.7711,73.3188 L79.9781,73.9198 L81.2101,71.4498 L83.7691,72.7268 L84.3091,71.6448 L81.7491,70.3688 L82.5351,68.7918 L85.4881,70.2648 Z M88.8731,70.5348 L87.6131,69.9058 L84.4901,76.1698 L85.7501,76.7978 L88.8731,70.5348 Z M94.2091,78.5018 L92.9381,77.8688 C92.4641,78.3478 91.7401,78.4788 91.0331,78.1258 C89.9591,77.5908 89.6981,76.4318 90.3191,75.1878 C90.9081,74.0058 91.9901,73.4058 93.0281,73.9228 C93.7701,74.2938 94.0531,74.9148 93.9241,75.5768 L95.2041,76.2148 C95.6981,74.6178 94.8601,73.4078 93.5801,72.7698 C91.8081,71.8868 89.9551,72.6478 89.0221,74.5188 C88.0851,76.3988 88.5701,78.3158 90.4761,79.2658 C91.8271,79.9398 93.2981,79.7238 94.2091,78.5018 L94.2091,78.5018 Z" id="Fill-6" fill="#FFFFFF"></path>
            </g>
        </g>
    </g>
</svg>