<?xml version="1.0" encoding="UTF-8"?>
<svg width="1097px" height="848px" viewBox="0 0 1097 848" version="1.1" xmlns="http://www.w3.org/2000/svg" xmlns:xlink="http://www.w3.org/1999/xlink">
    <!-- Generator: Sketch 54.1 (76490) - https://sketchapp.com -->
    <title>Header Graphic</title>
    <desc>Created with Sketch.</desc>
    <g id="Header-Graphic" stroke="none" stroke-width="1" fill="none" fill-rule="evenodd">
        <g id="Group-6">
            <g id="Reversible" transform="translate(342.000000, 0.000000)">
                <polygon id="Fill-1" fill="#EB008B" transform="translate(204.517073, 193.277334) rotate(-75.000000) translate(-204.517073, -193.277334) " points="244.966604 23.2146022 96.5855208 95.7449367 50.7396605 223.323142 146.011253 363.340067 283.227976 351.101035 358.294481 232.308329 358.294486 232.299429 321.722711 99.2008716"></polygon>
                <polygon id="Fill-2" fill="#F7C1D8" transform="translate(204.517351, 193.274776) rotate(-75.000000) translate(-204.517351, -193.274776) " points="153.642144 341.155452 70.7974365 219.401062 110.665341 108.463956 239.690586 45.3941007 306.433319 111.469583 338.237265 227.213184 272.960956 330.512738"></polygon>
                <polygon id="Fill-3" fill="#F399C1" transform="translate(204.516662, 193.273360) rotate(-75.000000) translate(-204.516662, -193.273360) " points="160.27805 321.865562 88.2377779 215.991252 122.906684 119.525208 235.103093 64.6811591 293.141415 122.139183 320.795547 222.784401 264.034547 312.611569"></polygon>
                <polygon id="Fill-4" fill="#F072AB" transform="translate(204.517247, 193.270882) rotate(-75.000000) translate(-204.517247, -193.270882) " points="166.048036 305.089916 103.405484 213.026382 133.550731 129.140854 231.113368 81.451847 281.57969 131.41496 305.629011 218.933623 256.270922 297.042115"></polygon>
                <polygon id="Fill-5" fill="#EB008B" transform="translate(204.516833, 193.268912) rotate(-75.000000) translate(-204.516833, -193.268912) " points="171.065035 290.503435 116.593561 210.448265 142.806509 137.50371 227.643119 96.0343886 271.527188 139.481038 292.440105 215.585151 249.518942 283.506122"></polygon>
                <text id="REVERSIBLE" font-family="WorkSans-SemiBold, Work Sans SemiBold" font-size="20" font-weight="500" letter-spacing="0.1248332" fill="#FFFFFF">
                    <tspan x="146.87097" y="198">REVERSIBLE</tspan>
                </text>
            </g>
            <g id="Freely-given" transform="translate(0.000000, 148.000000)">
                <polygon id="Fill-1" fill="#00ADEE" transform="translate(235.023981, 199.313768) rotate(162.000000) translate(-235.023981, -199.313768) " points="303.348335 55.7142395 103.189758 131.638195 34.8654048 278.672641 181.444257 342.913296 379.211294 326.153781 435.182558 126.822929"></polygon>
                <polygon id="Fill-2" fill="#AAE0F9" transform="translate(235.024177, 199.313387) rotate(162.000000) translate(-235.024177, -199.313387) " points="360.404527 309.608503 188.434836 324.183403 60.9738672 268.321885 120.386819 140.465219 294.437128 74.4433709 409.074486 136.278188"></polygon>
                <polygon id="Fill-3" fill="#6DCEF5" transform="translate(235.024268, 199.313245) rotate(162.000000) translate(-235.024268, -199.313245) " points="344.050777 295.222003 194.510505 307.895281 83.6754284 259.318952 135.33957 148.140026 286.687508 90.7312094 386.373107 144.49952"></polygon>
                <polygon id="Fill-4" fill="#00BFF2" transform="translate(235.023851, 199.313851) rotate(162.000000) translate(-235.023851, -199.313851) " points="329.828924 282.713162 199.795236 293.73356 103.416595 251.494213 148.341309 154.816964 279.947663 104.894142 366.631107 151.650368"></polygon>
                <polygon id="Fill-5" fill="#00ADEE" transform="translate(235.023628, 199.312703) rotate(162.000000) translate(-235.023628, -199.312703) " points="317.463096 271.832943 204.389776 281.416759 120.582811 244.684936 159.6477 160.617685 274.089419 117.208648 349.464446 157.865062"></polygon>
                <text id="FREELY-GIVEN" font-family="WorkSans-SemiBold, Work Sans SemiBold" font-size="20" font-weight="500" letter-spacing="0.1248332" fill="#FFFFFF">
                    <tspan x="158.04562" y="198">FREELY GIVEN</tspan>
                </text>
            </g>
            <g id="Enthusiastic" transform="translate(156.000000, 442.000000)">
                <polygon id="Fill-1" fill="#00A550" transform="translate(179.824719, 185.003853) rotate(83.000000) translate(-179.824719, -185.003853) " points="346.200867 24.360477 180.349606 27.263539 13.448572 196.314103 122.034859 345.647229 325.871924 248.094387"></polygon>
                <polygon id="Fill-2" fill="#B3DCC0" transform="translate(182.503812, 189.869023) rotate(83.000000) translate(-182.503812, -189.869023) " points="132.251514 329.558711 37.8282481 199.705778 182.961949 52.7047976 327.179376 50.1793349 309.502524 244.730806"></polygon>
                <polygon id="Fill-3" fill="#81C99C" transform="translate(184.832662, 194.099761) rotate(83.000000) translate(-184.832662, -194.099761) " points="141.135461 315.56881 59.0285998 202.652399 185.229941 74.8260318 310.636725 72.6307119 295.265876 241.805496"></polygon>
                <polygon id="Fill-4" fill="#45B97B" transform="translate(186.858725, 197.779103) rotate(83.000000) translate(-186.858725, -197.779103) " points="148.860955 303.40473 77.4640919 205.2172 187.203817 94.0622862 296.253358 92.1534756 282.887566 239.261657"></polygon>
                <polygon id="Fill-5" fill="#00A550" transform="translate(188.619118, 200.978308) rotate(83.000000) translate(-188.619118, -200.978308) " points="155.577823 292.826027 93.4928603 207.445076 188.920667 110.788955 283.745375 109.130589 272.123192 237.05042"></polygon>
                <text id="ENTHUSIASTIC" font-family="WorkSans-SemiBold, Work Sans SemiBold" font-size="20" font-weight="500" letter-spacing="0.1248332" fill="#FFFFFF">
                    <tspan x="129.731573" y="212">ENTHUSIASTIC</tspan>
                </text>
            </g>
            <g id="Specific" transform="translate(500.000000, 476.000000)">
                <polygon id="Fill-1" fill="#F6931D" transform="translate(236.808678, 185.751670) rotate(-5.000000) translate(-236.808678, -185.751670) " points="294.048542 352.437536 459.227699 19.065805 14.3896563 136.004862"></polygon>
                <polygon id="Fill-2" fill="#FDDAB3" transform="translate(233.723686, 180.733456) rotate(-5.000000) translate(-233.723686, -180.733456) " points="427.131543 35.9799583 283.497357 325.486954 40.3158295 137.531918"></polygon>
                <polygon id="Fill-3" fill="#FCC589" transform="translate(230.714946, 176.589694) rotate(-5.000000) translate(-230.714946, -176.589694) " points="398.628089 50.2593097 273.92834 302.920078 62.8018029 138.886978"></polygon>
                <polygon id="Fill-4" fill="#FAB061" transform="translate(229.534335, 173.167432) rotate(-5.000000) translate(-229.534335, -173.167432) " points="375.469326 63.5056524 267.09184 282.829212 83.5993431 140.43937"></polygon>
                <polygon id="Fill-5" fill="#F6931D" transform="translate(227.477614, 169.822061) rotate(-5.000000) translate(-227.477614, -169.822061) " points="354.95096 74.1970036 260.283006 265.447119 100.004267 141.281518"></polygon>
                <text id="SPECIFIC" font-family="WorkSans-SemiBold, Work Sans SemiBold" font-size="20" font-weight="500" letter-spacing="0.1248332" fill="#FFFFFF">
                    <tspan x="191.487848" y="170">SPECIFIC</tspan>
                </text>
            </g>
            <g id="Informed" transform="translate(678.000000, 152.000000)">
                <polygon id="Fill-1" fill="#BE00DA" points="161.815883 0 0.595283019 186.195366 174.517201 332 385.740566 251.84765"></polygon>
                <polygon id="Fill-2" fill="#FAD4FF" points="359.730755 240.469159 176.488107 310 25.604717 183.518753 165.46896 22"></polygon>
                <polygon id="Fill-3" fill="#F29BFF" points="338.72283 231.40167 179.071603 292 47.6130189 181.766454 169.471923 41"></polygon>
                <polygon id="Fill-4" fill="#D645EC" points="319.71566 222.368184 180.912847 275 66.6201887 179.259027 172.565407 57"></polygon>
                <polygon id="Fill-5" fill="#BE00DA" points="302.709245 215.128484 182.009116 261 82.6262264 177.557293 174.752587 71"></polygon>
                <text id="INFORMED" font-family="WorkSans-SemiBold, Work Sans SemiBold" font-size="20" font-weight="500" letter-spacing="0.1248332" fill="#FFFFFF">
                    <!-- <tspan x="138.498214" y="177">INFORMED</tspan> -->
                </text>
            </g>
        </g>
    </g>
</svg>