<?xml version="1.0" encoding="utf-8"?>
<!-- Generator: Adobe Illustrator 23.0.3, SVG Export Plug-In . SVG Version: 6.00 Build 0)  -->
<svg version="1.1" id="Layer_1" xmlns="http://www.w3.org/2000/svg" xmlns:xlink="http://www.w3.org/1999/xlink" x="0px" y="0px"
	 viewBox="0 0 320 334" style="enable-background:new 0 0 320 334;" xml:space="preserve">
<style type="text/css">
	.st0{fill:none;}
	.st1{fill:#EB008B;}
	.st2{fill:#F7C1D8;}
	.st3{fill:#F399C1;}
	.st4{fill:#F072AB;}
	.st5{fill:#00ADEE;}
	.st6{fill:#AAE0F9;}
	.st7{fill:#6DCEF5;}
	.st8{fill:#00BFF2;}
	.st9{fill:#91278F;}
	.st10{fill:#D2B5D6;}
	.st11{fill:#BC8CBE;}
	.st12{fill:#A967AA;}
	.st13{fill:#00A550;}
	.st14{fill:#B3DCC0;}
	.st15{fill:#81C99C;}
	.st16{fill:#45B97B;}
	.st17{fill:#F6931D;}
	.st18{fill:#FDDAB3;}
	.st19{fill:#FCC589;}
	.st20{fill:#FAB061;}
</style>
<title>Header Graphic</title>
<desc>Created with Sketch.</desc>
<g>
	<polygon class="st0" points="280.5,331.6 145.9,245.3 320,183 320,172 300.4,179.4 221.8,113.4 294.7,29 320,57.6 320,0 212.4,0 
		240.7,30.7 230,92.2 157.6,117.5 107.3,82.4 92.9,9 108.2,0 0,0 0,57.2 24.5,46.9 96.7,54 87.8,126.8 12.2,187.5 0,185.2 0,218.4 
		53.2,168.6 138.3,234.5 148.8,309.1 47.1,312.3 0,238.3 0,334 320,334 320,230.8 	"/>
	<polygon class="st1" points="107.3,82.4 157.6,117.5 230,92.2 240.7,30.7 212.4,0 200.3,0 230.5,32.8 221.2,86.3 158.3,108.2 
		114.5,77.8 102,13.9 125.7,0 108.2,0 92.9,9 	"/>
	<polygon class="st2" points="114.5,77.8 158.3,108.2 221.2,86.3 230.5,32.8 200.3,0 189.8,0 221.6,34.6 213.5,81.1 158.8,100.2 
		120.7,73.7 109.9,18.1 140.9,0 125.7,0 102,13.9 	"/>
	<path class="st3" d="M120.7,73.7l38.1,26.5l54.7-19.1l8.1-46.5L189.8,0h-48.9l-31,18.1L120.7,73.7z M185.6,5.4l28.3,30.8l-7,40.5
		l-47.6,16.6l-33.1-23l-9.4-48.3l27.7-16.2L185.6,5.4z"/>
	<path class="st4" d="M126.2,70.2l33.1,23l47.6-16.6l7-40.5L185.6,5.4l-41.1,0.3l-27.7,16.2L126.2,70.2z M146.9,11l35.7-0.2
		l24.7,26.8l-6.1,35.2l-41.4,14.5l-28.8-20l-8.2-42L146.9,11z"/>
	<polygon class="st1" points="130.9,67.1 159.7,87.1 201.1,72.7 207.2,37.5 182.6,10.7 146.9,11 122.7,25.1 	"/>
	<polygon class="st5" points="87.8,126.8 96.7,54 24.5,46.9 0,57.2 0,66.1 24.1,55.9 86.9,62.1 79.2,125.4 13.4,178.2 0,175.7 
		0,185.2 12.2,187.5 	"/>
	<polygon class="st6" points="79.2,125.4 86.9,62.1 24.1,55.9 0,66.1 0,73.8 23.8,63.8 78.3,69.2 71.6,124.2 14.4,170.1 0,167.4 
		0,175.7 13.4,178.2 	"/>
	<polygon class="st7" points="71.6,124.2 78.3,69.2 23.8,63.8 0,73.8 0,80.5 23.5,70.6 70.9,75.3 65.1,123.2 15.4,163 0,160.2 
		0,167.4 14.4,170.1 	"/>
	<polygon class="st8" points="65.1,123.2 70.9,75.3 23.5,70.6 0,80.5 0,86.3 23.2,76.5 64.5,80.6 59.4,122.3 16.2,156.9 0,154 
		0,160.2 15.4,163 	"/>
	<polygon class="st5" points="59.4,122.3 64.5,80.6 23.2,76.5 0,86.3 0,154 16.2,156.9 	"/>
	<polygon class="st9" points="221.8,113.4 300.4,179.4 320,172 320,162.4 301.3,169.5 233.1,112.2 296.3,39 320,65.7 320,57.6 
		294.7,29 	"/>
	<polygon class="st10" points="233.1,112.2 301.3,169.5 320,162.4 320,154.7 302.5,161.3 243.1,111.4 298.1,47.6 320,72.2 320,65.7 
		296.3,39 	"/>
	<polygon class="st11" points="243.1,111.4 302.5,161.3 320,154.7 320,147.3 303.3,153.6 251.7,110.2 299.5,54.8 320,77.9 320,72.2 
		298.1,47.6 	"/>
	<polygon class="st12" points="251.7,110.2 303.3,153.6 320,147.3 320,141.1 303.8,147.3 258.9,109.5 300.5,61.2 320,83.2 320,77.9 
		299.5,54.8 	"/>
	<polygon class="st9" points="258.9,109.5 303.8,147.3 320,141.1 320,83.2 300.5,61.2 	"/>
	<path class="st13" d="M148.8,309.1l-10.5-74.6l-85.2-65.9L0,218.4v19.9l47.1,74L148.8,309.1z M56.2,180.6l74.1,57.3l9.1,64.9
		L51,305.5L3.1,230.3L56.2,180.6z"/>
	<path class="st14" d="M139.4,302.7l-9.1-64.9l-74.1-57.3L3.1,230.3L51,305.5L139.4,302.7z M58.9,190.9l64.4,49.8l7.9,56.4
		l-76.9,2.4l-41.7-65.4L58.9,190.9z"/>
	<path class="st15" d="M131.2,297.1l-7.9-56.4l-64.4-49.8l-46.2,43.3l41.7,65.4L131.2,297.1z M61.2,199.9l56,43.3l6.9,49l-66.8,2.1
		L21,237.5L61.2,199.9z"/>
	<path class="st16" d="M124.1,292.3l-6.9-49l-56-43.3L21,237.5l36.2,56.9L124.1,292.3z M63.2,207.7l48.7,37.7l6,42.6l-58.1,1.8
		l-31.5-49.4L63.2,207.7z"/>
	<polygon class="st13" points="117.9,288 112,245.4 63.2,207.7 28.3,240.4 59.8,289.9 	"/>
	<polygon class="st17" points="280.5,331.6 320,230.8 320,204.8 274.9,319.8 157.9,244.8 320,186.8 320,183 145.9,245.3 	"/>
	<path class="st18" d="M274.9,319.8l45.1-115v-18l-162.1,58L274.9,319.8z M269.8,309.9l-101.6-65.5l147.9-53.1L269.8,309.9z"/>
	<path class="st19" d="M269.8,309.9l46.2-118.6l-147.9,53.1L269.8,309.9z M266.1,301.1l-88.3-56.8l128.5-46.1L266.1,301.1z"/>
	<path class="st20" d="M266.1,301.1l40.2-102.9l-128.5,46.1L266.1,301.1z M262.5,293.4l-77.1-49.6l112.3-40.2L262.5,293.4z"/>
	<polygon class="st17" points="262.5,293.4 297.6,203.7 185.3,243.9 	"/>
</g>
</svg>
