<?xml version="1.0" encoding="UTF-8"?>
<svg width="1132px" height="469px" viewBox="0 0 1132 469" version="1.1" xmlns="http://www.w3.org/2000/svg" xmlns:xlink="http://www.w3.org/1999/xlink">
    <!-- Generator: Sketch 54.1 (76490) - https://sketchapp.com -->
    <title>Artwork</title>
    <desc>Created with Sketch.</desc>
    <g id="Final" stroke="none" stroke-width="1" fill="none" fill-rule="evenodd">
        <g id="Desktop" transform="translate(-69.000000, -109.000000)">
            <g id="Header" transform="translate(-47.000000, -42.000000)">
                <g id="Artwork" transform="translate(116.000000, 150.820348)">
                    <g id="F" transform="translate(0.000000, 33.567003)">
                        <g id="Group">
                            <polygon id="Fill-1" fill-opacity="0.1" fill="#00ADEE" points="161.681078 0.000579069767 22.3661145 100.587893 -0.000144559585 229.022672 126.949192 248.47073 276.714368 194.346527 278.631228 27.8480442"></polygon>
                            <polygon id="Fill-2" fill-opacity="0.2" fill="#00ADEE" points="258.700365 185.401347 128.46808 232.465242 18.0780435 215.554957 37.5270902 103.872666 158.670914 16.4056256 260.365691 40.6208756"></polygon>
                            <polygon id="Fill-3" fill-opacity="0.3" fill="#00ADEE" points="243.035454 177.623137 129.790366 218.548892 33.7984648 203.843416 50.7104907 106.729073 156.052506 30.6697064 244.483941 51.7261308"></polygon>
                            <polygon id="Fill-4" fill-opacity="0.4" fill="#00ADEE" points="229.413605 170.859457 130.939615 206.44619 47.4694648 193.660329 62.1740658 109.21169 153.777138 43.0746837 230.672719 61.3848698"></polygon>
                            <polygon id="Fill-5" fill="#00ADEE" points="217.568537 164.97799 131.938666 195.923478 59.3552984 184.803891 72.1430394 111.372054 151.796817 53.8602924 218.664298 69.7818157"></polygon>
                            <path d="M101.66254,152.396252 L100.610147,150.892118 L95.1053176,154.751618 L100.909385,163.051135 L102.505323,161.932083 L100.216945,158.658891 L103.603976,156.283258 L102.602178,154.85006 L99.2151466,157.225694 L97.7550948,155.136699 L101.66254,152.396252 Z M114.596287,153.453054 L110.444535,151.398804 C111.092162,150.308705 111.09939,149.033304 110.336116,147.941758 C109.215779,146.34063 107.384209,146.140851 105.750685,147.287409 L102.671566,149.445891 L108.475634,157.745409 L110.013748,156.666891 L107.874266,153.607955 L109.094349,152.75238 L112.891929,154.648833 L114.596287,153.453054 Z M105.237499,149.836763 L106.623825,148.863926 C107.452152,148.283409 108.254458,148.393432 108.743069,149.094106 C109.208551,149.758589 109.071219,150.596792 108.241447,151.178758 L106.855121,152.150147 L105.237499,149.836763 Z M117.199805,149.456025 L115.764328,147.403223 L119.151359,145.027589 L118.18281,143.642165 L114.795779,146.016351 L113.435473,144.070676 L117.366048,141.314304 L116.346903,139.856496 L110.866649,143.700072 L116.669271,151.999589 L122.269509,148.073496 L121.250364,146.615688 L117.199805,149.456025 Z M124.932297,144.033037 L123.49682,141.980234 L126.883851,139.606048 L125.915302,138.219176 L122.528271,140.59481 L121.167965,138.647688 L125.09854,135.891316 L124.080841,134.434955 L118.599141,138.278531 L124.401763,146.578048 L130.002002,142.650508 L128.982856,141.194147 L124.932297,144.033037 Z M132.75297,138.408822 L128.034546,131.661211 L126.343198,132.846856 L132.14582,141.146374 L137.864597,137.137763 L136.778955,135.585856 L132.75297,138.408822 Z M137.709919,124.877409 L137.965789,129.026444 L137.835685,129.119095 L134.027986,127.458612 L132.14582,128.778891 L138.285266,131.40063 L140.838188,135.051665 L142.51797,133.874705 L139.965048,130.222223 L139.592084,123.55713 L137.709919,124.877409 Z M151.750991,120.703763 L152.637141,121.970478 L154.805535,120.45042 L155.586157,121.566577 C155.500867,122.051548 155.177053,123.00267 154.264882,123.642542 C152.606784,124.805025 151.035421,124.173839 149.958452,122.632066 C148.822214,121.007775 148.794748,119.151856 150.276483,118.113874 C151.259489,117.423333 152.32923,117.540595 152.927706,118.093606 L154.584359,116.931124 C153.37295,115.552938 151.376582,115.117188 149.125789,116.695153 C146.838856,118.299176 146.546846,121.25967 148.355287,123.845217 C150.013385,126.216508 152.583654,126.992461 154.905281,125.365275 C156.207763,124.451792 156.547478,123.295101 156.611084,122.756566 L156.741188,122.665362 L157.546385,123.337083 L158.634919,122.572711 L155.492193,118.080577 L151.750991,120.703763 Z M157.118489,111.267822 L155.450271,112.437542 L161.252893,120.73706 L162.92111,119.567339 L157.118489,111.267822 Z M164.744007,105.920112 L167.379328,113.82731 L167.249224,113.918513 L160.706458,108.751763 L158.990535,109.954781 L167.409685,116.420095 L169.635903,114.859502 L166.448364,104.724333 L164.744007,105.920112 Z M174.643447,109.175932 L173.20797,107.12313 L176.595002,104.747496 L175.625007,103.362072 L172.239421,105.737705 L170.87767,103.790583 L174.809691,101.034211 L173.790546,99.5764029 L168.308846,103.419978 L174.112913,111.719496 L179.711706,107.793403 L178.692561,106.335595 L174.643447,109.175932 Z M181.33511,94.2866006 L185.082095,99.6458913 L184.951991,99.7370948 L177.686426,96.8446413 L176.041338,97.9984378 L181.845406,106.297955 L183.395084,105.210752 L179.623525,99.8167169 L179.753628,99.7255134 L187.137732,102.586118 L188.675846,101.507601 L182.873224,93.2080831 L181.33511,94.2866006 Z" id="Fill-6" fill="#FFFFFF"></path>
                        </g>
                    </g>
                    <g id="E" transform="translate(623.000000, 226.000000)">
                        <g id="Group">
                            <polygon id="Fill-1" fill-opacity="0.1" fill="#00A550" points="140.178517 0.000146107784 0.000436216216 119.710637 73.7326092 242.863428 237.598685 181.091978 268.354836 9.02376287"></polygon>
                            <polygon id="Fill-2" fill-opacity="0.2" fill="#00A550" points="85.0790292 225.880589 20.9625157 118.79235 142.857321 14.6949365 254.314926 22.5409246 227.57051 172.166984"></polygon>
                            <polygon id="Fill-3" fill-opacity="0.3" fill="#00A550" points="94.9450768 211.112891 39.1922822 117.992556 145.187006 27.4729389 242.106979 34.2961725 218.850839 164.405154"></polygon>
                            <polygon id="Fill-4" fill-opacity="0.4" fill="#00A550" points="103.523996 198.271478 55.0429254 117.297083 147.212504 38.5844359 231.490931 44.5178731 211.267947 157.656436"></polygon>
                            <polygon id="Fill-5" fill="#00A550" points="110.98402 187.105044 68.8266308 116.692781 148.97409 48.2471281 222.259869 53.406194 204.674539 151.787871"></polygon>
                            <path d="M103.595535,137.68131 L102.612595,135.352352 L106.439665,133.720328 L105.776616,132.148208 L101.948092,133.781693 L101.016043,131.574005 L105.459632,129.678987 L104.761686,128.025047 L98.5659622,130.668137 L102.541346,140.0804 L108.870843,137.381789 L108.172897,135.72931 L103.595535,137.68131 Z M113.288259,124.388424 L115.856119,130.466508 L115.709259,130.529334 L109.164562,126.147562 L107.306281,126.940927 L111.281665,136.35319 L113.0338,135.60658 L110.448492,129.487586 L110.596805,129.424759 L117.265097,133.800687 L119.002692,133.059921 L115.027308,123.647657 L113.288259,124.388424 Z M124.275092,119.702747 L117.304357,122.676041 L118.008119,124.341669 L120.590519,123.240017 L123.863595,130.986651 L125.654989,130.222508 L122.383368,122.475873 L124.978854,121.368376 L124.275092,119.702747 Z M132.254941,116.298436 L133.867486,120.119154 L130.091308,121.729262 L128.478762,117.910005 L126.659741,118.685837 L130.636578,128.098101 L132.454146,127.322268 L130.784892,123.368592 L134.56107,121.758484 L136.230324,125.71216 L138.049346,124.936328 L134.072508,115.524065 L132.254941,116.298436 Z M144.726362,110.978651 L142.841908,111.783705 L145.19893,117.365023 C145.784914,118.750125 145.433032,119.899993 144.227622,120.414292 C143.009124,120.934436 141.901135,120.406987 141.316605,119.021885 L138.95813,113.439107 L137.059135,114.250005 L139.38853,119.764113 C140.576492,122.573765 142.830276,123.055921 144.945924,122.152975 C147.061573,121.25149 148.243719,119.303873 147.055757,116.492759 L144.726362,110.978651 Z M156.92733,113.949023 C156.241016,112.321382 154.772422,112.058388 152.720751,112.140208 C151.321951,112.195729 150.653086,112.068616 150.385541,111.43743 C150.129627,110.831083 150.455335,110.215969 151.191086,109.901837 C152.195838,109.473741 152.912686,109.898915 153.26893,110.5564 L154.928005,109.849238 C154.266411,108.320951 152.568076,107.476448 150.5324,108.344328 C148.806438,109.080711 147.902016,110.639681 148.623227,112.347681 C149.277551,113.894963 150.834843,114.071753 152.528816,113.968017 C154.094832,113.855514 154.77533,114.010388 155.076319,114.723394 C155.388941,115.462699 154.901832,116.067586 154.151541,116.387562 C152.96067,116.896017 152.147854,116.432855 151.731995,115.483154 L149.939146,116.247298 C150.731605,118.083873 152.534632,118.916687 154.769514,117.962604 C156.645243,117.163394 157.671805,115.711083 156.92733,113.949023 L156.92733,113.949023 Z M158.472989,105.116807 L156.587081,105.9204 L160.563919,115.334125 L162.448373,114.529071 L158.472989,105.116807 Z M171.350092,110.73319 L173.276714,109.910604 L166.14167,101.845454 L163.75993,102.860903 L164.565476,113.626125 L166.492097,112.804999 L166.272535,110.454125 L169.818973,108.941909 L171.350092,110.73319 Z M166.109681,108.684759 L165.705454,104.362891 L165.852314,104.300065 L168.665908,107.593334 L166.109681,108.684759 Z M180.578973,103.861741 C179.891205,102.234101 178.422611,101.971107 176.370941,102.051466 C174.973595,102.108448 174.303276,101.981334 174.03573,101.350149 C173.779816,100.743801 174.105524,100.128687 174.841276,99.8145557 C175.846027,99.3864599 176.562876,99.8116335 176.919119,100.469119 L178.578195,99.7619569 C177.9166,98.2336695 176.218265,97.3891665 174.184043,98.2570467 C172.456627,98.9934299 171.552205,100.5524 172.273416,102.2604 C172.927741,103.80622 174.485032,103.983011 176.179005,103.880735 C177.745022,103.768232 178.425519,103.923107 178.727962,104.636113 C179.03913,105.375418 178.552022,105.980304 177.80173,106.30028 C176.610859,106.808735 175.799497,106.345574 175.382184,105.395873 L173.589335,106.160017 C174.381795,107.996592 176.184822,108.829406 178.421157,107.875322 C180.295432,107.076113 181.321995,105.623801 180.578973,103.861741 L180.578973,103.861741 Z M186.432995,93.1900287 L179.460805,96.1647832 L180.164568,97.830412 L182.748422,96.7287593 L186.020043,104.475394 L187.812892,103.71125 L184.539816,95.9646156 L187.136757,94.8571186 L186.432995,93.1900287 Z M190.702097,91.3695257 L188.816189,92.1731186 L192.793027,101.586843 L194.678935,100.781789 L190.702097,91.3695257 Z M204.550508,93.0015497 L202.650059,93.8124479 C202.731486,94.7942922 202.192032,95.7220766 201.134935,96.1735497 C199.529659,96.8587952 198.002903,96.0493581 197.211897,94.1791784 C196.461605,92.4025078 196.819303,90.6316814 198.372232,89.9698132 C199.48313,89.4949629 200.436989,89.7711066 201.047692,90.5425557 L202.961227,89.7272743 C201.662757,87.6613102 199.532568,87.4450707 197.619032,88.2603521 C194.968292,89.3912263 194.060962,92.1731186 195.248924,94.9842323 C196.441249,97.8099569 199.019286,99.0898611 201.869232,97.8742443 C203.890368,97.0122084 205.040524,95.1741725 204.550508,93.0015497 L204.550508,93.0015497 Z" id="Fill-6" fill="#FFFFFF"></path>
                        </g>
                    </g>
                    <g id="R" transform="translate(274.000000, 164.000000)">
                        <g id="Group">
                            <polygon id="Fill-1" fill-opacity="0.1" fill="#EB008B" points="143.39803 -0.00013125 33.8196486 53.4317437 0.00052716763 147.493369 70.4248509 250.777931 171.778099 241.801744 227.184735 154.229119 227.184735 154.222556 200.122585 56.0606812"></polygon>
                            <polygon id="Fill-2" fill-opacity="0.2" fill="#EB008B" points="76.0553965 234.423 14.8169688 144.609937 44.2263329 62.8175625 139.510564 16.3550625 188.835003 65.1039375 212.369084 150.466312 164.188599 226.617562"></polygon>
                            <polygon id="Fill-3" fill-opacity="0.3" fill="#EB008B" points="80.9514659 220.201144 27.6996277 142.102144 53.2738474 70.9790812 136.130102 30.5763937 179.021778 72.9675187 199.485108 147.194644 157.589778 213.414206"></polygon>
                            <polygon id="Fill-4" fill-opacity="0.4" fill="#EB008B" points="85.2090035 207.834244 38.9039168 139.922869 61.1411653 78.0752437 133.190483 42.9435562 170.486275 79.8051187 188.282136 144.351244 151.850899 201.931931"></polygon>
                            <polygon id="Fill-5" fill="#EB008B" points="88.9113017 197.080537 48.6462382 138.027225 67.9827468 84.246225 130.633984 53.696475 163.065336 85.75035 178.540342 141.8781 146.860203 191.948663"></polygon>
                            <path d="M80.4273295,127.005244 L79.4270289,122.920744 C80.5670289,122.735681 81.460578,121.996744 81.7755607,120.829931 C82.2355145,119.118431 81.3011098,117.728494 79.5443237,117.259931 L76.2350289,116.376619 L73.8469595,125.249119 L75.500948,125.690119 L76.3813179,122.419369 L77.6926474,122.769806 L78.595422,126.516994 L80.4273295,127.005244 Z M77.4659653,118.388681 L78.9552139,118.786369 C79.8474451,119.023931 80.240185,119.644744 80.0385434,120.394181 C79.8474451,121.104244 79.181896,121.497994 78.2896647,121.259119 L76.8004162,120.861431 L77.4659653,118.388681 Z M84.7421965,126.486806 L85.3326243,124.292306 L88.9727168,125.263556 L89.3720462,123.781744 L85.7306358,122.810494 L86.2907514,120.730181 L90.5173179,121.857619 L90.9364162,120.299681 L85.044,118.727306 L82.6559306,127.599806 L88.676185,129.206306 L89.0952832,127.648369 L84.7421965,126.486806 Z M98.854474,122.412806 L94.8849017,128.853244 L94.7438844,128.816494 L94.5145665,121.253869 L92.6694798,120.761681 L93.0951676,130.384931 L95.4871908,131.024119 L100.687699,122.901056 L98.854474,122.412806 Z M102.385179,131.194744 L102.975607,129.000244 L106.617017,129.971494 L107.015029,128.489681 L103.374936,127.518431 L103.935052,125.438119 L108.160301,126.565556 L108.579399,125.007619 L102.686983,123.435244 L100.300231,132.307744 L106.320486,133.914244 L106.739584,132.356306 L102.385179,131.194744 Z M115.192717,136.281994 L114.192416,132.197494 C115.332416,132.012431 116.225965,131.273494 116.540948,130.106681 C117.000902,128.395181 116.066497,127.005244 114.309711,126.536681 L111.000416,125.653369 L108.612347,134.525869 L110.266335,134.968181 L111.146705,131.697431 L112.458035,132.046556 L113.360809,135.793744 L115.192717,136.281994 Z M112.231353,127.665431 L113.721919,128.063119 C114.612832,128.300681 115.005572,128.922806 114.803931,129.670931 C114.612832,130.380994 113.947283,130.774744 113.055052,130.537181 L111.565803,130.139494 L112.231353,127.665431 Z M124.046497,136.132369 C124.460324,134.598056 123.557549,133.596619 122.047214,132.513806 C121.016601,131.776181 120.609364,131.314181 120.768832,130.718306 C120.923029,130.147369 121.496324,129.892744 122.197457,130.080431 C123.152948,130.335056 123.428393,131.033306 123.317688,131.697431 L124.895237,132.118744 C125.272162,130.669744 124.527538,129.127556 122.592832,128.610431 C120.949387,128.173369 119.439052,128.774494 119.005457,130.383619 C118.612717,131.841806 119.627514,132.832744 120.895353,133.701619 C122.07489,134.491744 122.475538,134.979994 122.294983,135.651994 C122.107838,136.348931 121.423838,136.506431 120.710844,136.316119 C119.576116,136.012931 119.254543,135.234619 119.483861,134.330306 L117.779792,133.876181 C117.32511,135.616556 118.151445,137.207306 120.277249,137.774306 C122.059075,138.250744 123.599723,137.792681 124.046497,136.132369 L124.046497,136.132369 Z M130.05489,130.737994 L128.26252,130.260244 L125.874451,139.132744 L127.668139,139.611806 L130.05489,130.737994 Z M136.452069,136.942181 L136.482382,136.827994 C137.265225,136.751869 137.984809,136.359431 138.261572,135.331744 C138.663538,133.836806 137.618428,132.756619 136.064601,132.341869 L132.883145,131.492681 L130.495075,140.366494 L133.970428,141.293119 C135.472855,141.693431 137.109711,141.384994 137.584162,139.622306 C137.94659,138.278306 137.261272,137.429119 136.452069,136.942181 L136.452069,136.942181 Z M134.144393,133.390556 L135.609919,133.781681 C136.296555,133.965431 136.687977,134.490431 136.517965,135.125681 C136.340046,135.784556 135.794428,136.087744 135.004994,135.877744 L133.577688,135.497119 L134.144393,133.390556 Z M134.031052,139.748306 L132.540486,139.350619 L133.203399,136.889681 L134.744046,137.300494 C135.712717,137.559056 136.100185,138.246806 135.906451,138.969994 C135.711399,139.693181 135.036624,140.017369 134.031052,139.748306 L134.031052,139.748306 Z M141.659168,141.566119 L143.600462,134.352619 L141.781734,133.866994 L139.393665,142.740806 L145.540439,144.380119 L145.987214,142.721119 L141.659168,141.566119 Z M149.740647,143.831494 L150.331075,141.636994 L153.972486,142.608244 L154.370497,141.126431 L150.730405,140.155181 L151.289202,138.074869 L155.515769,139.202306 L155.934867,137.644369 L150.042451,136.071994 L147.655699,144.944494 L153.674636,146.550994 L154.093734,144.993056 L149.740647,143.831494 Z" id="Fill-6" fill="#FFFFFF"></path>
                        </g>
                    </g>
                    <g id="S" transform="translate(854.000000, 29.000000)">
                        <g id="Group">
                            <polygon id="Fill-1" fill-opacity="0.1" fill="#F6931D" points="63.6337467 220.616653 277.988366 107.686612 0.00045326087 0"></polygon>
                            <polygon id="Fill-2" fill-opacity="0.2" fill="#F6931D" points="255.205964 104.565322 68.8099859 202.766343 13.4774098 10.9251184"></polygon>
                            <polygon id="Fill-3" fill-opacity="0.3" fill="#F6931D" points="235.395291 101.851486 73.3122261 187.242955 25.195563 20.424302"></polygon>
                            <polygon id="Fill-4" fill-opacity="0.4" fill="#F6931D" points="218.168659 99.4917918 77.2271913 173.745506 35.3866804 28.6858735"></polygon>
                            <polygon id="Fill-5" fill="#F6931D" points="203.188991 97.4397265 80.6302739 162.008502 44.2485348 35.8702163"></polygon>
                            <path d="M84.3323576,90.3219837 C85.1482272,88.6864327 84.3640859,87.349902 82.9166728,85.7853306 C81.9285641,84.7176163 81.5750207,84.1044735 81.8923033,83.4686776 C82.195988,82.8600653 82.8985424,82.7045143 83.6434011,83.0745143 C84.6571946,83.5804327 84.8082815,84.4321878 84.5317924,85.1540653 L86.2073467,85.9892082 C86.9612707,84.4427592 86.4808141,82.5338612 84.4245207,81.5084327 C82.6794663,80.6400653 80.8437598,80.9723102 79.9886076,82.687902 C79.2120207,84.2434122 80.1245859,85.5920245 81.3499011,86.8605959 C82.4936293,88.0219429 82.8320641,88.6622694 82.4754989,89.3796163 C82.103825,90.1226367 81.3000424,90.1437796 80.5415859,89.7662286 C79.3374228,89.1666776 79.1546076,88.2137388 79.6199554,87.2472082 L77.8099337,86.3456163 C76.8988793,88.2031673 77.4624337,90.1875755 79.7196728,91.3126776 C81.6143033,92.2565551 83.4500098,92.0919429 84.3323576,90.3219837 L84.3323576,90.3219837 Z M94.0517815,86.4754939 L90.4151185,84.663249 L85.6966728,94.1216571 L87.4538141,94.9975755 L89.1187924,91.6585143 L90.9439228,92.5691673 C93.0410098,93.6142286 94.8147707,93.0312898 95.7666185,91.1254122 C96.6489663,89.3539429 96.1065641,87.4994122 94.0517815,86.4754939 L94.0517815,86.4754939 Z M91.6238141,90.8686776 L89.9331511,90.0259837 L91.3563902,87.171698 L93.1014446,88.0415755 C94.0895533,88.533902 94.3328033,89.399249 93.9294011,90.2102286 C93.489738,91.0891673 92.679912,91.3942286 91.6238141,90.8686776 L91.6238141,90.8686776 Z M97.4225315,97.8926367 L98.5889228,95.5518204 L102.456749,97.4788408 L103.243912,95.8991673 L99.3775967,93.9721469 L100.483553,91.7536571 L104.972347,93.9917796 L105.800303,92.3305551 L99.5422815,89.2119837 L94.8238359,98.6703918 L101.217836,101.856922 L102.045792,100.197208 L97.4225315,97.8926367 Z M113.199032,104.033127 L111.280227,103.075657 C110.564075,103.800555 109.470205,103.996882 108.402021,103.46529 C106.779347,102.65582 106.38501,100.907004 107.321749,99.0283102 C108.213162,97.243249 109.846412,96.3356163 111.414695,97.117902 C112.537271,97.6766776 112.964847,98.6160245 112.769945,99.6157796 L114.702347,100.57929 C115.450227,98.1674939 114.184118,96.3401469 112.250205,95.3766367 C109.572945,94.0416163 106.773303,95.1923918 105.363662,98.0179837 C103.947977,100.857167 104.679238,103.750718 107.558955,105.186922 C109.601651,106.20329 111.822629,105.878596 113.199032,104.033127 L113.199032,104.033127 Z M120.727695,99.7698204 L118.823999,98.8214122 L114.105553,108.27982 L116.01076,109.229739 L120.727695,99.7698204 Z M129.161368,106.114188 L130.016521,104.398596 L123.731303,101.266433 L119.012858,110.726351 L120.836477,111.633984 L122.697868,107.90378 L126.564184,109.83231 L127.380053,108.198269 L123.512227,106.271249 L124.699771,103.889657 L129.161368,106.114188 Z M134.275662,106.521943 L132.371966,105.572024 L127.653521,115.031943 L129.557216,115.980351 L134.275662,106.521943 Z M142.337662,118.553739 L140.417347,117.59778 C139.701195,118.321167 138.607325,118.519004 137.53914,117.985902 C135.916466,117.177943 135.522129,115.427616 136.460379,113.548922 C137.350282,111.763861 138.985042,110.857739 140.553325,111.638514 C141.67439,112.1988 142.101966,113.136637 141.907064,114.136392 L143.840977,115.099902 C144.587347,112.688106 143.321238,110.860759 141.387325,109.897249 C138.710064,108.563739 135.910423,109.713004 134.500782,112.538596 C133.085097,115.37778 133.817868,118.272841 136.697586,119.707535 C138.738771,120.725412 140.96126,120.399208 142.337662,118.553739 L142.337662,118.553739 Z" id="Fill-6" fill="#FFFFFF"></path>
                        </g>
                    </g>
                    <g id="I" transform="translate(478.000000, 0.249104)">
                        <g id="Group">
                            <polygon id="Fill-1" fill-opacity="0.1" fill="#BE00DA" points="121.111714 -0.000573714286 0.000285714286 140.507792 130.653143 250.536152 289.327429 190.050889"></polygon>
                            <polygon id="Fill-2" fill-opacity="0.2" fill="#BE00DA" points="270.457571 181.600651 132.480429 234.197343 18.869 138.520446 124.183286 16.3393829"></polygon>
                            <polygon id="Fill-3" fill-opacity="0.3" fill="#BE00DA" points="254.049714 174.252949 134.069714 219.989452 35.2768571 136.790841 126.855429 30.5475606"></polygon>
                            <polygon id="Fill-4" fill-opacity="0.4" fill="#BE00DA" points="239.781857 167.863637 135.451857 207.634945 49.5447143 135.288139 129.177571 42.902928"></polygon>
                            <polygon id="Fill-5" fill="#BE00DA" points="227.375143 162.307644 136.652286 196.891141 61.9522857 133.981935 131.198 53.6461583"></polygon>
                            <path d="M113.404286,111.085429 L111.661429,110.075691 L106.662857,118.768897 L108.405714,119.778634 L113.404286,111.085429 Z M121.682857,115.884549 L118.454286,121.496909 L118.318571,121.418023 L117.87,113.674314 L116.152857,112.67892 L111.152857,121.372126 L112.772857,122.310149 L116.021429,116.659063 L116.157143,116.737949 L116.682857,124.577754 L118.29,125.508606 L123.288571,116.8154 L121.682857,115.884549 Z M130.87,123.31128 L131.775714,121.735 L126.024286,118.40172 L121.025714,127.094926 L122.694286,128.061634 L124.665714,124.633691 L128.204286,126.68472 L129.067143,125.183023 L125.528571,123.131994 L126.787143,120.944709 L130.87,123.31128 Z M132.842857,134.110017 C135.342857,135.558646 138.315714,134.71672 139.78,132.169429 C141.244286,129.623571 140.484286,126.617309 137.972857,125.161509 C135.447143,123.697103 132.487143,124.5462 131.022857,127.093491 C129.557143,129.640783 130.305714,132.639874 132.842857,134.110017 L132.842857,134.110017 Z M133.777143,132.483537 C132.255714,131.601451 131.83,129.731143 132.765714,128.103229 C133.701429,126.476749 135.527143,125.91164 137.037143,126.786554 C138.534286,127.654297 138.961429,129.524606 138.024286,131.15252 C137.088571,132.780434 135.274286,133.352714 133.777143,132.483537 L133.777143,132.483537 Z M146.051429,141.601291 L146.155714,137.007274 C147.401429,137.133491 148.545714,136.605674 149.202857,135.462549 C150.167143,133.785869 149.58,132.054686 147.872857,131.065029 L144.655714,129.200457 L139.657143,137.893663 L141.264286,138.825949 L143.107143,135.621754 L144.381429,136.360411 L144.271429,140.568606 L146.051429,141.601291 Z M145.378571,131.671731 L146.827143,132.510789 C147.692857,133.012789 147.928571,133.778697 147.507143,134.513051 C147.107143,135.20868 146.3,135.436731 145.432857,134.934731 L143.984286,134.09424 L145.378571,131.671731 Z M162.457143,139.520143 L160.257143,138.243629 L154.561429,142.725771 L154.424286,142.646886 L155.418571,135.4396 L153.217143,134.163086 L148.218571,142.856291 L149.837143,143.795749 L153.28,137.80904 L153.417143,137.887926 L152.444286,144.312091 L154.09,145.267326 L159.158571,141.215469 L159.294286,141.294354 L155.851429,147.281063 L157.458571,148.213349 L162.457143,139.520143 Z M162.702857,149.218783 L163.94,147.067354 L167.478571,149.118383 L168.312857,147.666886 L164.774286,145.615857 L165.947143,143.577737 L170.054286,145.958651 L170.932857,144.432571 L165.205714,141.1122 L160.207143,149.805406 L166.057143,153.197491 L166.934286,151.671411 L162.702857,149.218783 Z M176.128571,147.444571 L173.284286,145.795143 L168.285714,154.488349 L171.13,156.137777 C173.802857,157.686806 176.397143,157.072931 177.998571,154.290417 C179.577143,151.54376 178.802857,148.9936 176.128571,147.444571 L176.128571,147.444571 Z M172.048571,154.568669 L170.897143,153.901726 L174.084286,148.359646 L175.234286,149.028023 C176.844286,149.960309 177.297143,151.581051 176.332857,153.259166 C175.318571,155.023337 173.645714,155.493783 172.048571,154.568669 L172.048571,154.568669 Z" id="Fill-6" fill="#FFFFFF"></path>
                        </g>
                    </g>
                </g>
            </g>
        </g>
    </g>
</svg>