<?xml version="1.0" encoding="UTF-8"?>
<svg width="511px" height="511px" viewBox="0 0 511 511" version="1.1" xmlns="http://www.w3.org/2000/svg" xmlns:xlink="http://www.w3.org/1999/xlink">
    <!-- Generator: Sketch 54.1 (76490) - https://sketchapp.com -->
    <title>Artboard Copy 4</title>
    <desc>Created with Sketch.</desc>
    <g id="Artboard-Copy-4" stroke="none" stroke-width="1" fill="none" fill-rule="evenodd">
        <g id="Specific" transform="translate(19.000000, 70.000000)">
            <polygon id="Fill-1" fill="#F6931D" transform="translate(236.808678, 185.751670) rotate(-5.000000) translate(-236.808678, -185.751670) " points="294.048542 352.437536 459.227699 19.065805 14.3896563 136.004862"></polygon>
            <polygon id="Fill-2" fill="#FDDAB3" transform="translate(233.723686, 180.733456) rotate(-5.000000) translate(-233.723686, -180.733456) " points="427.131543 35.9799583 283.497357 325.486954 40.3158295 137.531918"></polygon>
            <polygon id="Fill-3" fill="#FCC589" transform="translate(230.714946, 176.589694) rotate(-5.000000) translate(-230.714946, -176.589694) " points="398.628089 50.2593097 273.92834 302.920078 62.8018029 138.886978"></polygon>
            <polygon id="Fill-4" fill="#FAB061" transform="translate(229.534335, 173.167432) rotate(-5.000000) translate(-229.534335, -173.167432) " points="375.469326 63.5056524 267.09184 282.829212 83.5993431 140.43937"></polygon>
            <polygon id="Fill-5" fill="#F6931D" transform="translate(227.477614, 169.822061) rotate(-5.000000) translate(-227.477614, -169.822061) " points="354.95096 74.1970036 260.283006 265.447119 100.004267 141.281518"></polygon>
            <text id="SPECIFIC" font-family="WorkSans-SemiBold, Work Sans SemiBold" font-size="20" font-weight="500" letter-spacing="0.1248332" fill="#FFFFFF">
                <!-- <tspan x="191.487848" y="170">SPECIFIC</tspan> -->
            </text>
        </g>
    </g>
</svg>