<?xml version="1.0" encoding="utf-8"?>
<!-- Generator: Adobe Illustrator 23.0.3, SVG Export Plug-In . SVG Version: 6.00 Build 0)  -->
<svg version="1.1" xmlns="http://www.w3.org/2000/svg" xmlns:xlink="http://www.w3.org/1999/xlink" x="0px" y="0px"
	 viewBox="0 0 1097 848" style="enable-background:new 0 0 1097 848;" xml:space="preserve">
<style type="text/css">
	.st0{display:none;}
	.st1{display:inline;}
	.st2{fill-rule:evenodd;clip-rule:evenodd;fill:#EB008B;}
	.st3{fill-rule:evenodd;clip-rule:evenodd;fill:#F7C1D8;}
	.st4{fill-rule:evenodd;clip-rule:evenodd;fill:#F399C1;}
	.st5{fill-rule:evenodd;clip-rule:evenodd;fill:#F072AB;}
	.st6{fill:#FFFFFF;}
	.st7{font-family:'WorkSans-Medium';}
	.st8{font-size:20px;}
	.st9{fill-rule:evenodd;clip-rule:evenodd;fill:#00ADEE;}
	.st10{fill-rule:evenodd;clip-rule:evenodd;fill:#AAE0F9;}
	.st11{fill-rule:evenodd;clip-rule:evenodd;fill:#6DCEF5;}
	.st12{fill-rule:evenodd;clip-rule:evenodd;fill:#00BFF2;}
	.st13{fill-rule:evenodd;clip-rule:evenodd;fill:#00A550;}
	.st14{fill-rule:evenodd;clip-rule:evenodd;fill:#B3DCC0;}
	.st15{fill-rule:evenodd;clip-rule:evenodd;fill:#81C99C;}
	.st16{fill-rule:evenodd;clip-rule:evenodd;fill:#45B97B;}
	.st17{fill-rule:evenodd;clip-rule:evenodd;fill:#F6931D;}
	.st18{fill-rule:evenodd;clip-rule:evenodd;fill:#FDDAB3;}
	.st19{fill-rule:evenodd;clip-rule:evenodd;fill:#FCC589;}
	.st20{fill-rule:evenodd;clip-rule:evenodd;fill:#FAB061;}
	.st21{fill-rule:evenodd;clip-rule:evenodd;fill:#BE00DA;}
	.st22{fill-rule:evenodd;clip-rule:evenodd;fill:#FAD4FF;}
	.st23{fill-rule:evenodd;clip-rule:evenodd;fill:#F29BFF;}
	.st24{fill-rule:evenodd;clip-rule:evenodd;fill:#D645EC;}
	.st25{enable-background:new    ;}
</style>
<g id="Layer_1" class="st0">
	<title>Header Graphic</title>
	<desc>Created with Sketch.</desc>
	<g id="Header-Graphic" class="st1">
		<g id="Group-6">
			<g id="Reversible" transform="translate(342.000000, 0.000000)">
				<polygon id="Fill-1" class="st2" points="50.7,110.2 82.4,272.3 193.7,349.6 353.6,293.8 377.3,158.1 282,54.8 282,54.8 
					144,55.7 				"/>
				<polygon id="Fill-2" class="st3" points="334.2,280.7 195.1,329.2 98.3,262 70.8,121 151.9,73.7 271.9,72.9 354.8,162.7 				"/>
				<polygon id="Fill-3" class="st4" points="317.3,269.3 196.4,311.5 112.2,253 88.2,130.4 158.7,89.3 263.1,88.6 335.2,166.7 				
					"/>
				<polygon id="Fill-4" class="st5" points="302.6,259.4 197.4,296.1 124.2,245.2 103.4,138.6 164.7,102.8 255.5,102.2 
					318.1,170.1 				"/>
				<polygon id="Fill-5" class="st2" points="289.8,250.7 198.4,282.6 134.7,238.4 116.6,145.8 169.9,114.6 248.8,114.1 
					303.3,173.2 				"/>
				<text transform="matrix(1 0 0 1 146.871 198)" class="st6 st7 st8">REVERSIBLE</text>
			</g>
			<g id="Freely-given" transform="translate(0.000000, 148.000000)">
				<polygon class="st9" points="214.4,357 381.3,222.9 400.9,62 241.6,46.2 58.7,123.2 67.1,330.1 				"/>
				<polygon class="st10" points="81.7,133.2 240.7,66.2 379.2,79.9 362.2,219.9 217.1,336.4 89,313 				"/>
				<polygon class="st11" points="101.7,141.8 240,83.5 360.4,95.5 345.6,217.2 219.4,318.5 108,298.2 				"/>
				<polygon class="st12" points="119.1,149.3 239.4,98.6 344.1,109 331.2,214.8 221.5,303 124.6,285.3 				"/>
				<polygon class="st9" points="134.2,155.8 238.8,111.8 329.8,120.8 318.7,212.8 223.2,289.5 139,274.1 				"/>
				<text transform="matrix(1 0 0 1 158.0457 198)" class="st6 st7 st8">FREELY GIVEN</text>
			</g>
			<g id="Enthusiastic" transform="translate(156.000000, 442.000000)">
				<polygon class="st13" points="359.5,330.6 336.5,166.3 148.3,21.2 13.3,147.2 135,337.7 				"/>
				<polygon class="st14" points="37.7,157 155.1,47.5 318.7,173.6 338.8,316.4 143.5,322.6 				"/>
				<polygon class="st15" points="58.9,165.5 161,70.3 303.3,180 320.7,304.2 150.9,309.5 				"/>
				<polygon class="st16" points="77.4,172.9 166.1,90.1 289.8,185.5 305,293.5 157.4,298.1 				"/>
				<polygon class="st13" points="93.4,179.4 170.6,107.3 278.2,190.3 291.4,284.2 163,288.3 				"/>
				<text transform="matrix(1 0 0 1 129.7316 212)" class="st6 st7 st8">ENTHUSIASTIC</text>
			</g>
			<g id="Specific" transform="translate(500.000000, 476.000000)">
				<polygon class="st17" points="308.4,346.8 443.9,0.3 10.9,155.6 				"/>
				<polygon class="st18" points="413.8,19.7 295.9,320.6 37.3,154.6 				"/>
				<polygon class="st19" points="387,36.1 284.8,298.7 60.2,153.7 				"/>
				<polygon class="st20" points="365.4,51.2 276.5,279.1 81.3,153.3 				"/>
				<polygon class="st17" points="346.1,63.5 268.5,262.2 98,152.5 				"/>
				<text transform="matrix(1 0 0 1 191.4878 170)" class="st6 st7 st8">SPECIFIC</text>
			</g>
			<g id="Informed" transform="translate(678.000000, 152.000000)">
				<polygon class="st21" points="161.8,0 0.6,186.2 174.5,332 385.7,251.8 				"/>
				<polygon class="st22" points="359.7,240.5 176.5,310 25.6,183.5 165.5,22 				"/>
				<polygon class="st23" points="338.7,231.4 179.1,292 47.6,181.8 169.5,41 				"/>
				<polygon class="st24" points="319.7,222.4 180.9,275 66.6,179.3 172.6,57 				"/>
				<polygon class="st21" points="302.7,215.1 182,261 82.6,177.6 174.8,71 				"/>
				<text transform="matrix(1 0 0 1 138.4983 177)" class="st6 st7 st8">INFORMED</text>
			</g>
		</g>
	</g>
</g>
<g id="Layer_1_copy">
	<title>Header Graphic</title>
	<desc>Created with Sketch.</desc>
	<g id="Header-Graphic_1_">
		<g id="Group-6_1_">
			<g id="Reversible_1_" transform="translate(342.000000, 0.000000)">
				<polygon id="Fill-1_1_" class="st2" points="50.7,110.2 82.4,272.3 193.7,349.6 353.6,293.8 377.3,158.1 282,54.8 282,54.8 
					144,55.7 				"/>
				<polygon id="Fill-2_1_" class="st3" points="334.2,280.7 195.1,329.2 98.3,262 70.8,121 151.9,73.7 271.9,72.9 354.8,162.7 				
					"/>
				<polygon id="Fill-3_1_" class="st4" points="317.3,269.3 196.4,311.5 112.2,253 88.2,130.4 158.7,89.3 263.1,88.6 335.2,166.7 
									"/>
				<polygon id="Fill-4_1_" class="st5" points="302.6,259.4 197.4,296.1 124.2,245.2 103.4,138.6 164.7,102.8 255.5,102.2 
					318.1,170.1 				"/>
				<polygon id="Fill-5_1_" class="st2" points="289.8,250.7 198.4,282.6 134.7,238.4 116.6,145.8 169.9,114.6 248.8,114.1 
					303.3,173.2 				"/>
				<g class="st25">
					<path class="st6" d="M153.8,192.7H151v5.3h-2.1v-13.2h5.4c1.4,0,2.6,0.4,3.4,1c0.8,0.7,1.2,1.7,1.2,2.9c0,0.9-0.2,1.7-0.7,2.4
						c-0.5,0.6-1.2,1.1-2.1,1.4l3.6,5.5h-2.5L153.8,192.7z M151,190.9h3.1c0.9,0,1.5-0.2,1.9-0.5c0.4-0.4,0.6-0.9,0.6-1.6
						s-0.2-1.3-0.6-1.6c-0.4-0.4-1.1-0.5-1.9-0.5H151V190.9z"/>
					<path class="st6" d="M172.2,196.2v1.8h-9.8v-13.2h9.6v1.8h-7.4v3.8h5.8v1.8h-5.8v3.9H172.2z"/>
					<path class="st6" d="M181.1,198h-2.5l-4.9-13.2h2.3l3.1,8.8l0.8,2.6l0.8-2.6l3.1-8.8h2.3L181.1,198z"/>
					<path class="st6" d="M198.4,196.2v1.8h-9.8v-13.2h9.6v1.8h-7.4v3.8h5.8v1.8h-5.8v3.9H198.4z"/>
					<path class="st6" d="M206.3,192.7h-2.8v5.3h-2.1v-13.2h5.4c1.4,0,2.6,0.4,3.4,1c0.8,0.7,1.2,1.7,1.2,2.9c0,0.9-0.2,1.7-0.7,2.4
						c-0.5,0.6-1.2,1.1-2.1,1.4l3.6,5.5h-2.5L206.3,192.7z M203.5,190.9h3.1c0.9,0,1.5-0.2,1.9-0.5c0.4-0.4,0.6-0.9,0.6-1.6
						s-0.2-1.3-0.6-1.6c-0.4-0.4-1.1-0.5-1.9-0.5h-3.1V190.9z"/>
					<path class="st6" d="M222.5,185.3c0.9,0.4,1.6,1.1,2.2,2l-1.6,1.5c-0.4-0.8-0.8-1.4-1.4-1.7c-0.6-0.4-1.3-0.5-2.2-0.5
						c-0.9,0-1.6,0.2-2.1,0.5c-0.5,0.4-0.8,0.8-0.8,1.4c0,0.5,0.2,1,0.7,1.3s1.4,0.6,2.6,0.8c1.2,0.2,2.1,0.5,2.8,0.8
						c0.7,0.3,1.2,0.7,1.5,1.2c0.3,0.5,0.5,1.1,0.5,1.8c0,0.8-0.2,1.5-0.7,2c-0.4,0.6-1.1,1-1.9,1.4c-0.8,0.3-1.7,0.5-2.8,0.5
						c-2.7,0-4.6-0.9-5.7-2.7l1.5-1.5c0.4,0.8,1,1.4,1.6,1.8c0.7,0.4,1.5,0.6,2.5,0.6c0.9,0,1.7-0.2,2.2-0.5
						c0.5-0.3,0.8-0.8,0.8-1.4c0-0.5-0.2-0.9-0.7-1.2c-0.5-0.3-1.3-0.6-2.5-0.8c-1.2-0.2-2.2-0.5-2.9-0.8c-0.7-0.3-1.2-0.7-1.6-1.2
						c-0.3-0.5-0.5-1.1-0.5-1.8c0-0.7,0.2-1.4,0.6-2c0.4-0.6,1-1.1,1.8-1.5c0.8-0.4,1.7-0.5,2.7-0.5
						C220.6,184.6,221.7,184.8,222.5,185.3z"/>
					<path class="st6" d="M230,198h-2.1v-13.2h2.1V198z"/>
					<path class="st6" d="M234.1,184.8h5.2c1.5,0,2.7,0.3,3.4,0.9c0.8,0.6,1.1,1.5,1.1,2.7c0,0.7-0.2,1.3-0.6,1.9
						c-0.4,0.5-1,0.9-1.7,1v0c0.8,0.1,1.5,0.5,2,1c0.5,0.6,0.7,1.2,0.7,2c0,1.1-0.4,2-1.3,2.7c-0.8,0.6-2,1-3.6,1h-5.3V184.8z
						 M239.1,190.5c1.7,0,2.5-0.6,2.5-1.9s-0.8-1.9-2.5-1.9h-2.9v3.9H239.1z M239.5,196.2c0.8,0,1.5-0.2,1.9-0.5s0.6-0.8,0.6-1.5
						c0-0.6-0.2-1.1-0.6-1.5c-0.4-0.3-1.1-0.5-1.9-0.5h-3.3v4H239.5z"/>
					<path class="st6" d="M256.8,196.2v1.8h-9.4v-13.2h2.1v11.4H256.8z"/>
					<path class="st6" d="M269.4,196.2v1.8h-9.8v-13.2h9.6v1.8h-7.4v3.8h5.8v1.8h-5.8v3.9H269.4z"/>
				</g>
			</g>
			<g id="Freely-given_1_" transform="translate(0.000000, 148.000000)">
				<polygon class="st9" points="214.4,357 381.3,222.9 400.9,62 241.6,46.2 58.7,123.2 67.1,330.1 				"/>
				<polygon class="st10" points="81.7,133.2 240.7,66.2 379.2,79.9 362.2,219.9 217.1,336.4 89,313 				"/>
				<polygon class="st11" points="101.7,141.8 240,83.5 360.4,95.5 345.6,217.2 219.4,318.5 108,298.2 				"/>
				<polygon class="st12" points="119.1,149.3 239.4,98.6 344.1,109 331.2,214.8 221.5,303 124.6,285.3 				"/>
				<polygon class="st9" points="134.2,155.8 238.8,111.8 329.8,120.8 318.7,212.8 223.2,289.5 139,274.1 				"/>
				<g class="st25">
					<path class="st6" d="M162.1,186.6v3.8h5.8v1.9h-5.8v5.7H160v-13.2h9.5v1.8H162.1z"/>
					<path class="st6" d="M177.3,192.7h-2.8v5.3h-2.1v-13.2h5.4c1.4,0,2.6,0.4,3.4,1c0.8,0.7,1.2,1.7,1.2,2.9c0,0.9-0.2,1.7-0.7,2.4
						c-0.5,0.6-1.2,1.1-2.1,1.4l3.6,5.5h-2.5L177.3,192.7z M174.5,190.9h3.1c0.9,0,1.5-0.2,1.9-0.5s0.6-0.9,0.6-1.6
						s-0.2-1.3-0.6-1.6s-1.1-0.5-1.9-0.5h-3.1V190.9z"/>
					<path class="st6" d="M195.7,196.2v1.8h-9.8v-13.2h9.6v1.8H188v3.8h5.8v1.8H188v3.9H195.7z"/>
					<path class="st6" d="M208.6,196.2v1.8h-9.8v-13.2h9.6v1.8h-7.4v3.8h5.8v1.8h-5.8v3.9H208.6z"/>
					<path class="st6" d="M221,196.2v1.8h-9.4v-13.2h2.1v11.4H221z"/>
					<path class="st6" d="M226.4,192.9v5.1h-2.1v-5.1l-4.7-8.1h2.4l2.4,4.2l1,2l1-2l2.3-4.2h2.4L226.4,192.9z"/>
					<path class="st6" d="M250.3,191.2v6.8h-1.6l-0.1-1.7c-0.4,0.6-0.9,1.1-1.6,1.4s-1.5,0.5-2.4,0.5c-1.2,0-2.3-0.3-3.2-0.8
						s-1.6-1.3-2.1-2.3c-0.5-1-0.8-2.2-0.8-3.6c0-1.4,0.3-2.6,0.8-3.6c0.5-1,1.3-1.8,2.2-2.4c0.9-0.6,2-0.8,3.3-0.8
						c1.4,0,2.5,0.3,3.4,0.8s1.6,1.3,2.1,2.4l-2,0.9c-0.3-0.7-0.7-1.3-1.3-1.6c-0.6-0.4-1.3-0.6-2.2-0.6c-1.3,0-2.2,0.4-3,1.3
						c-0.7,0.9-1.1,2.1-1.1,3.6c0,1.6,0.4,2.8,1,3.7c0.7,0.9,1.7,1.3,3.1,1.3c1.1,0,1.9-0.3,2.6-0.8c0.7-0.5,1-1.3,1-2.3v-0.4h-4
						v-1.8H250.3z"/>
					<path class="st6" d="M256,198h-2.1v-13.2h2.1V198z"/>
					<path class="st6" d="M265.9,198h-2.5l-4.9-13.2h2.3l3.1,8.8l0.8,2.6l0.8-2.6l3.1-8.8h2.3L265.9,198z"/>
					<path class="st6" d="M283.1,196.2v1.8h-9.8v-13.2h9.6v1.8h-7.4v3.8h5.8v1.8h-5.8v3.9H283.1z"/>
					<path class="st6" d="M297,198h-2.5l-5.1-8.3l-1.3-2.4h0l0.1,2.2v8.5h-2v-13.2h2.5l5.1,8.3l1.3,2.5h0l-0.1-2.2v-8.5h2V198z"/>
				</g>
			</g>
			<g id="Enthusiastic_1_" transform="translate(156.000000, 442.000000)">
				<polygon class="st13" points="359.5,330.6 336.5,166.3 148.3,21.2 13.3,147.2 135,337.7 				"/>
				<polygon class="st14" points="37.7,157 155.1,47.5 318.7,173.6 338.8,316.4 143.5,322.6 				"/>
				<polygon class="st15" points="58.9,165.5 161,70.3 303.3,180 320.7,304.2 150.9,309.5 				"/>
				<polygon class="st16" points="77.4,172.9 166.1,90.1 289.8,185.5 305,293.5 157.4,298.1 				"/>
				<polygon class="st13" points="93.4,179.4 170.6,107.3 278.2,190.3 291.4,284.2 163,288.3 				"/>
				<g class="st25">
					<path class="st6" d="M141.5,210.2v1.8h-9.8v-13.2h9.6v1.8h-7.4v3.8h5.8v1.8h-5.8v3.9H141.5z"/>
					<path class="st6" d="M155.4,212h-2.5l-5.1-8.3l-1.3-2.4h0l0.1,2.2v8.5h-2v-13.2h2.5l5.1,8.3l1.3,2.5h0l-0.1-2.2v-8.5h2V212z"/>
					<path class="st6" d="M169.2,200.6h-4.5V212h-2.1v-11.4H158v-1.8h11.2V200.6z"/>
					<path class="st6" d="M182.7,198.8V212h-2.2v-5.8H174v5.8h-2.1v-13.2h2.1v5.6h6.5v-5.6H182.7z"/>
					<path class="st6" d="M197.3,206.9c0,1.7-0.5,3-1.4,3.9c-0.9,0.9-2.3,1.3-4,1.3c-1.8,0-3.1-0.4-4-1.3s-1.4-2.2-1.4-3.9v-8.1h2.2
						v7.9c0,1.3,0.3,2.2,0.8,2.8c0.5,0.6,1.3,0.9,2.5,0.9c1.1,0,1.9-0.3,2.4-0.9c0.5-0.6,0.8-1.5,0.8-2.8v-7.9h2.2V206.9z"/>
					<path class="st6" d="M208.8,199.3c0.9,0.4,1.6,1.1,2.2,2l-1.6,1.5c-0.4-0.8-0.8-1.4-1.4-1.7c-0.6-0.4-1.3-0.5-2.2-0.5
						c-0.9,0-1.6,0.2-2.1,0.5c-0.5,0.4-0.8,0.8-0.8,1.4c0,0.5,0.2,1,0.7,1.3s1.4,0.6,2.6,0.8c1.2,0.2,2.1,0.5,2.8,0.8
						c0.7,0.3,1.2,0.7,1.5,1.2c0.3,0.5,0.5,1.1,0.5,1.8c0,0.8-0.2,1.5-0.7,2s-1.1,1-1.9,1.4c-0.8,0.3-1.7,0.5-2.8,0.5
						c-2.7,0-4.6-0.9-5.7-2.7l1.5-1.5c0.4,0.8,1,1.4,1.6,1.8s1.5,0.6,2.5,0.6c0.9,0,1.7-0.2,2.2-0.5c0.5-0.3,0.8-0.8,0.8-1.4
						c0-0.5-0.2-0.9-0.7-1.2c-0.5-0.3-1.3-0.6-2.6-0.8c-1.2-0.2-2.2-0.5-2.9-0.8c-0.7-0.3-1.2-0.7-1.6-1.2c-0.3-0.5-0.5-1.1-0.5-1.8
						c0-0.7,0.2-1.4,0.6-2c0.4-0.6,1-1.1,1.8-1.5c0.8-0.4,1.7-0.5,2.7-0.5C206.9,198.6,207.9,198.8,208.8,199.3z"/>
					<path class="st6" d="M216.3,212h-2.1v-13.2h2.1V212z"/>
					<path class="st6" d="M227.8,208.5h-5.6L221,212h-2.2l5-13.2h2.6l5,13.2H229L227.8,208.5z M227.1,206.8l-1.5-4.2l-0.6-1.9H225
						l-0.6,1.9l-1.6,4.3H227.1z"/>
					<path class="st6" d="M241.2,199.3c0.9,0.4,1.6,1.1,2.2,2l-1.6,1.5c-0.4-0.8-0.8-1.4-1.4-1.7c-0.6-0.4-1.3-0.5-2.2-0.5
						c-0.9,0-1.6,0.2-2.1,0.5c-0.5,0.4-0.8,0.8-0.8,1.4c0,0.5,0.2,1,0.7,1.3s1.4,0.6,2.6,0.8c1.2,0.2,2.1,0.5,2.8,0.8
						c0.7,0.3,1.2,0.7,1.5,1.2c0.3,0.5,0.5,1.1,0.5,1.8c0,0.8-0.2,1.5-0.7,2s-1.1,1-1.9,1.4c-0.8,0.3-1.7,0.5-2.8,0.5
						c-2.7,0-4.6-0.9-5.7-2.7l1.5-1.5c0.4,0.8,1,1.4,1.6,1.8s1.5,0.6,2.5,0.6c0.9,0,1.7-0.2,2.2-0.5c0.5-0.3,0.8-0.8,0.8-1.4
						c0-0.5-0.2-0.9-0.7-1.2c-0.5-0.3-1.3-0.6-2.6-0.8c-1.2-0.2-2.2-0.5-2.9-0.8c-0.7-0.3-1.2-0.7-1.6-1.2c-0.3-0.5-0.5-1.1-0.5-1.8
						c0-0.7,0.2-1.4,0.6-2c0.4-0.6,1-1.1,1.8-1.5c0.8-0.4,1.7-0.5,2.7-0.5C239.3,198.6,240.4,198.8,241.2,199.3z"/>
					<path class="st6" d="M255.9,200.6h-4.5V212h-2.1v-11.4h-4.5v-1.8h11.2V200.6z"/>
					<path class="st6" d="M260.7,212h-2.1v-13.2h2.1V212z"/>
					<path class="st6" d="M273.6,211.2c-1,0.6-2.1,1-3.4,1c-1.3,0-2.4-0.3-3.3-0.8c-0.9-0.5-1.7-1.3-2.2-2.4c-0.5-1-0.8-2.2-0.8-3.6
						s0.3-2.6,0.8-3.6c0.5-1,1.2-1.8,2.2-2.4c0.9-0.5,2-0.8,3.3-0.8c1.3,0,2.4,0.3,3.3,0.8s1.5,1.4,2,2.4l-2,0.9
						c-0.3-0.8-0.7-1.4-1.2-1.7c-0.5-0.4-1.2-0.5-2-0.5c-1.2,0-2.2,0.4-3,1.3c-0.7,0.9-1.1,2.1-1.1,3.6c0,1.6,0.4,2.8,1.1,3.6
						c0.7,0.9,1.7,1.3,2.9,1.3c0.9,0,1.6-0.2,2.1-0.6s1-1.1,1.2-1.9l2,0.7C275.3,209.7,274.6,210.6,273.6,211.2z"/>
				</g>
			</g>
			<g id="Specific_1_" transform="translate(500.000000, 476.000000)">
				<polygon class="st17" points="308.4,346.8 443.9,0.3 10.9,155.6 				"/>
				<polygon class="st18" points="413.8,19.7 295.9,320.6 37.3,154.6 				"/>
				<polygon class="st19" points="387,36.1 284.8,298.7 60.2,153.7 				"/>
				<polygon class="st20" points="365.4,51.2 276.5,279.1 81.3,153.3 				"/>
				<polygon class="st17" points="346.1,63.5 268.5,262.2 98,152.5 				"/>
				<g class="st25">
					<path class="st6" d="M201.1,157.3c0.9,0.4,1.6,1.1,2.2,2l-1.6,1.5c-0.4-0.8-0.8-1.4-1.4-1.7s-1.3-0.5-2.2-0.5
						c-0.9,0-1.6,0.2-2.1,0.5c-0.5,0.4-0.8,0.8-0.8,1.4c0,0.5,0.2,1,0.7,1.3s1.4,0.6,2.6,0.8c1.2,0.2,2.1,0.5,2.8,0.8
						c0.7,0.3,1.2,0.7,1.5,1.2c0.3,0.5,0.5,1.1,0.5,1.8c0,0.8-0.2,1.5-0.7,2s-1.1,1-1.9,1.4c-0.8,0.3-1.7,0.5-2.8,0.5
						c-2.7,0-4.6-0.9-5.7-2.7l1.5-1.5c0.4,0.8,1,1.4,1.7,1.8c0.7,0.4,1.5,0.6,2.5,0.6c0.9,0,1.7-0.2,2.2-0.5
						c0.5-0.3,0.8-0.8,0.8-1.4c0-0.5-0.2-0.9-0.7-1.2c-0.5-0.3-1.3-0.6-2.6-0.8c-1.2-0.2-2.2-0.5-2.9-0.8c-0.7-0.3-1.2-0.7-1.6-1.2
						s-0.5-1.1-0.5-1.8c0-0.7,0.2-1.4,0.6-2c0.4-0.6,1-1.1,1.8-1.5c0.8-0.4,1.7-0.5,2.7-0.5C199.2,156.6,200.2,156.8,201.1,157.3z"
						/>
					<path class="st6" d="M214.9,157.9c0.8,0.7,1.2,1.7,1.2,3s-0.4,2.3-1.2,3c-0.8,0.7-2,1.1-3.4,1.1h-2.9v5h-2.1v-13.2h5.1
						C212.9,156.8,214,157.2,214.9,157.9z M213.2,162.6c0.5-0.4,0.7-1,0.7-1.7c0-1.5-0.9-2.3-2.8-2.3h-2.6v4.6h2.6
						C212.1,163.2,212.8,163,213.2,162.6z"/>
					<path class="st6" d="M228.9,168.2v1.8h-9.8v-13.2h9.6v1.8h-7.4v3.8h5.8v1.8h-5.8v3.9H228.9z"/>
					<path class="st6" d="M240.6,169.2c-1,0.6-2.1,1-3.4,1c-1.3,0-2.4-0.3-3.3-0.8s-1.7-1.3-2.2-2.4c-0.5-1-0.8-2.2-0.8-3.6
						s0.3-2.6,0.8-3.6c0.5-1,1.2-1.8,2.2-2.4s2-0.8,3.3-0.8c1.3,0,2.4,0.3,3.3,0.8c0.9,0.5,1.6,1.4,2,2.4l-2,0.9
						c-0.3-0.8-0.7-1.4-1.2-1.7c-0.5-0.4-1.2-0.5-2-0.5c-1.2,0-2.2,0.4-3,1.3c-0.7,0.9-1.1,2.1-1.1,3.6c0,1.6,0.4,2.8,1.1,3.6
						c0.7,0.9,1.7,1.3,2.9,1.3c0.9,0,1.6-0.2,2.1-0.6s1-1.1,1.2-1.9l2,0.7C242.2,167.7,241.5,168.6,240.6,169.2z"/>
					<path class="st6" d="M247.6,170h-2.1v-13.2h2.1V170z"/>
					<path class="st6" d="M253.8,158.6v3.8h5.8v1.9h-5.8v5.7h-2.1v-13.2h9.5v1.8H253.8z"/>
					<path class="st6" d="M266.1,170H264v-13.2h2.1V170z"/>
					<path class="st6" d="M279.1,169.2c-1,0.6-2.1,1-3.4,1c-1.3,0-2.4-0.3-3.3-0.8c-0.9-0.5-1.7-1.3-2.2-2.4c-0.5-1-0.8-2.2-0.8-3.6
						s0.3-2.6,0.8-3.6c0.5-1,1.2-1.8,2.2-2.4c0.9-0.5,2-0.8,3.3-0.8c1.3,0,2.4,0.3,3.3,0.8s1.5,1.4,2,2.4l-2,0.9
						c-0.3-0.8-0.7-1.4-1.2-1.7c-0.5-0.4-1.2-0.5-2-0.5c-1.2,0-2.2,0.4-3,1.3c-0.7,0.9-1.1,2.1-1.1,3.6c0,1.6,0.4,2.8,1.1,3.6
						c0.7,0.9,1.7,1.3,2.9,1.3c0.9,0,1.6-0.2,2.1-0.6s1-1.1,1.2-1.9l2,0.7C280.7,167.7,280,168.6,279.1,169.2z"/>
				</g>
			</g>
			<g id="Informed_1_" transform="translate(678.000000, 152.000000)">
				<polygon class="st21" points="161.8,0 0.6,186.2 174.5,332 385.7,251.8 				"/>
				<polygon class="st22" points="359.7,240.5 176.5,310 25.6,183.5 165.5,22 				"/>
				<polygon class="st23" points="338.7,231.4 179.1,292 47.6,181.8 169.5,41 				"/>
				<polygon class="st24" points="319.7,222.4 180.9,275 66.6,179.3 172.6,57 				"/>
				<polygon class="st21" points="302.7,215.1 182,261 82.6,177.6 174.8,71 				"/>
				<g class="st25">
					<path class="st6" d="M142.6,177h-2.1v-13.2h2.1V177z"/>
					<path class="st6" d="M157.5,177h-2.5l-5.1-8.3l-1.3-2.4h0l0.1,2.2v8.5h-2v-13.2h2.5l5.1,8.3l1.3,2.5h0l-0.1-2.2v-8.5h2V177z"/>
					<path class="st6" d="M163.6,165.6v3.8h5.8v1.9h-5.8v5.7h-2.1v-13.2h9.5v1.8H163.6z"/>
					<path class="st6" d="M182.4,164.4c0.9,0.5,1.7,1.3,2.2,2.4s0.8,2.2,0.8,3.6s-0.3,2.6-0.8,3.6c-0.5,1-1.2,1.8-2.2,2.4
						c-0.9,0.5-2,0.8-3.3,0.8s-2.4-0.3-3.3-0.8s-1.7-1.3-2.2-2.4c-0.5-1-0.8-2.2-0.8-3.6s0.3-2.6,0.8-3.6s1.2-1.8,2.2-2.4
						s2-0.8,3.3-0.8S181.5,163.9,182.4,164.4z M176.2,166.8c-0.7,0.9-1.1,2.1-1.1,3.6c0,1.6,0.4,2.8,1.1,3.6
						c0.7,0.9,1.7,1.3,2.9,1.3c1.3,0,2.2-0.4,2.9-1.3c0.7-0.9,1.1-2.1,1.1-3.6c0-1.6-0.4-2.8-1.1-3.6c-0.7-0.9-1.7-1.3-2.9-1.3
						C177.9,165.5,176.9,165.9,176.2,166.8z"/>
					<path class="st6" d="M193.6,171.7h-2.8v5.3h-2.1v-13.2h5.4c1.4,0,2.6,0.4,3.4,1c0.8,0.7,1.2,1.7,1.2,2.9c0,0.9-0.2,1.7-0.7,2.4
						c-0.5,0.6-1.2,1.1-2.1,1.4l3.6,5.5H197L193.6,171.7z M190.8,169.9h3.1c0.9,0,1.5-0.2,1.9-0.5c0.4-0.4,0.6-0.9,0.6-1.6
						s-0.2-1.3-0.6-1.6c-0.4-0.4-1.1-0.5-1.9-0.5h-3.1V169.9z"/>
					<path class="st6" d="M215.7,177h-2v-7.6l0.1-3.6h0l-4,11.3h-1.8l-4-11.3h0l0.2,3.6v7.6h-2v-13.2h3.2l2.7,7.6l0.9,3.1h0l0.9-3.1
						l2.6-7.6h3.1V177z"/>
					<path class="st6" d="M229.6,175.2v1.8h-9.8v-13.2h9.6v1.8h-7.4v3.8h5.8v1.8h-5.8v3.9H229.6z"/>
					<path class="st6" d="M242.1,165.5c1.1,1.1,1.7,2.8,1.7,4.9c0,2.1-0.6,3.7-1.7,4.9s-2.8,1.7-4.8,1.7h-4.7v-13.2h4.7
						C239.3,163.8,240.9,164.4,242.1,165.5z M240.4,173.9c0.7-0.8,1.1-2,1.1-3.5c0-1.5-0.4-2.7-1.1-3.5c-0.7-0.8-1.8-1.2-3.2-1.2
						h-2.5v9.6h2.5C238.6,175.2,239.7,174.8,240.4,173.9z"/>
				</g>
			</g>
		</g>
	</g>
</g>
</svg>
