<?xml version="1.0" encoding="UTF-8"?>
<svg width="511px" height="511px" viewBox="0 0 511 511" version="1.1" xmlns="http://www.w3.org/2000/svg" xmlns:xlink="http://www.w3.org/1999/xlink">
    <!-- Generator: Sketch 54.1 (76490) - https://sketchapp.com -->
    <title>Artboard Copy</title>
    <desc>Created with Sketch.</desc>
    <g id="Artboard-Copy" stroke="none" stroke-width="1" fill="none" fill-rule="evenodd">
        <g id="Reversible" transform="translate(51.000000, 63.000000)">
            <polygon id="Fill-1" fill="#EB008B" transform="translate(204.517073, 193.277334) rotate(-75.000000) translate(-204.517073, -193.277334) " points="244.966604 23.2146022 96.5855208 95.7449367 50.7396605 223.323142 146.011253 363.340067 283.227976 351.101035 358.294481 232.308329 358.294486 232.299429 321.722711 99.2008716"></polygon>
            <polygon id="Fill-2" fill="#F7C1D8" transform="translate(204.517351, 193.274776) rotate(-75.000000) translate(-204.517351, -193.274776) " points="153.642144 341.155452 70.7974365 219.401062 110.665341 108.463956 239.690586 45.3941007 306.433319 111.469583 338.237265 227.213184 272.960956 330.512738"></polygon>
            <polygon id="Fill-3" fill="#F399C1" transform="translate(204.516662, 193.273360) rotate(-75.000000) translate(-204.516662, -193.273360) " points="160.27805 321.865562 88.2377779 215.991252 122.906684 119.525208 235.103093 64.6811591 293.141415 122.139183 320.795547 222.784401 264.034547 312.611569"></polygon>
            <polygon id="Fill-4" fill="#F072AB" transform="translate(204.517247, 193.270882) rotate(-75.000000) translate(-204.517247, -193.270882) " points="166.048036 305.089916 103.405484 213.026382 133.550731 129.140854 231.113368 81.451847 281.57969 131.41496 305.629011 218.933623 256.270922 297.042115"></polygon>
            <polygon id="Fill-5" fill="#EB008B" transform="translate(204.516833, 193.268912) rotate(-75.000000) translate(-204.516833, -193.268912) " points="171.065035 290.503435 116.593561 210.448265 142.806509 137.50371 227.643119 96.0343886 271.527188 139.481038 292.440105 215.585151 249.518942 283.506122"></polygon>
            <text id="REVERSIBLE" font-family="WorkSans-SemiBold, Work Sans SemiBold" font-size="20" font-weight="500" letter-spacing="0.1248332" fill="#FFFFFF">
                <tspan x="146.87097" y="198">REVERSIBLE</tspan>
            </text>
        </g>
    </g>
</svg>