<?xml version="1.0" encoding="UTF-8"?>
<svg width="511px" height="511px" viewBox="0 0 511 511" version="1.1" xmlns="http://www.w3.org/2000/svg" xmlns:xlink="http://www.w3.org/1999/xlink">
    <!-- Generator: Sketch 54.1 (76490) - https://sketchapp.com -->
    <title>Artboard Copy 3</title>
    <desc>Created with Sketch.</desc>
    <g id="Artboard-Copy-3" stroke="none" stroke-width="1" fill="none" fill-rule="evenodd">
        <g id="Enthusiastic" transform="translate(76.000000, 71.000000)">
            <polygon id="Fill-1" fill="#00A550" transform="translate(179.824719, 185.003853) rotate(83.000000) translate(-179.824719, -185.003853) " points="346.200867 24.360477 180.349606 27.263539 13.448572 196.314103 122.034859 345.647229 325.871924 248.094387"></polygon>
            <polygon id="Fill-2" fill="#B3DCC0" transform="translate(182.503812, 189.869023) rotate(83.000000) translate(-182.503812, -189.869023) " points="132.251514 329.558711 37.8282481 199.705778 182.961949 52.7047976 327.179376 50.1793349 309.502524 244.730806"></polygon>
            <polygon id="Fill-3" fill="#81C99C" transform="translate(184.832662, 194.099761) rotate(83.000000) translate(-184.832662, -194.099761) " points="141.135461 315.56881 59.0285998 202.652399 185.229941 74.8260318 310.636725 72.6307119 295.265876 241.805496"></polygon>
            <polygon id="Fill-4" fill="#45B97B" transform="translate(186.858725, 197.779103) rotate(83.000000) translate(-186.858725, -197.779103) " points="148.860955 303.40473 77.4640919 205.2172 187.203817 94.0622862 296.253358 92.1534756 282.887566 239.261657"></polygon>
            <polygon id="Fill-5" fill="#00A550" transform="translate(188.619118, 200.978308) rotate(83.000000) translate(-188.619118, -200.978308) " points="155.577823 292.826027 93.4928603 207.445076 188.920667 110.788955 283.745375 109.130589 272.123192 237.05042"></polygon>
            <text id="ENTHUSIASTIC" font-family="WorkSans-SemiBold, Work Sans SemiBold" font-size="20" font-weight="500" letter-spacing="0.1248332" fill="#FFFFFF">
                <tspan x="129.731573" y="212">ENTHUSIASTIC</tspan>
            </text>
        </g>
    </g>
</svg>