<?xml version="1.0" encoding="UTF-8"?>
<svg width="511px" height="511px" viewBox="0 0 511 511" version="1.1" xmlns="http://www.w3.org/2000/svg" xmlns:xlink="http://www.w3.org/1999/xlink">
    <!-- Generator: Sketch 54.1 (76490) - https://sketchapp.com -->
    <title>Artboard</title>
    <desc>Created with Sketch.</desc>
    <g id="Artboard" stroke="none" stroke-width="1" fill="none" fill-rule="evenodd">
        <g id="Freely-given" transform="translate(21.000000, 57.000000)">
            <polygon id="Fill-1" fill="#00ADEE" transform="translate(235.023981, 199.313768) rotate(162.000000) translate(-235.023981, -199.313768) " points="303.348335 55.7142395 103.189758 131.638195 34.8654048 278.672641 181.444257 342.913296 379.211294 326.153781 435.182558 126.822929"></polygon>
            <polygon id="Fill-2" fill="#AAE0F9" transform="translate(235.024177, 199.313387) rotate(162.000000) translate(-235.024177, -199.313387) " points="360.404527 309.608503 188.434836 324.183403 60.9738672 268.321885 120.386819 140.465219 294.437128 74.4433709 409.074486 136.278188"></polygon>
            <polygon id="Fill-3" fill="#6DCEF5" transform="translate(235.024268, 199.313245) rotate(162.000000) translate(-235.024268, -199.313245) " points="344.050777 295.222003 194.510505 307.895281 83.6754284 259.318952 135.33957 148.140026 286.687508 90.7312094 386.373107 144.49952"></polygon>
            <polygon id="Fill-4" fill="#00BFF2" transform="translate(235.023851, 199.313851) rotate(162.000000) translate(-235.023851, -199.313851) " points="329.828924 282.713162 199.795236 293.73356 103.416595 251.494213 148.341309 154.816964 279.947663 104.894142 366.631107 151.650368"></polygon>
            <polygon id="Fill-5" fill="#00ADEE" transform="translate(235.023628, 199.312703) rotate(162.000000) translate(-235.023628, -199.312703) " points="317.463096 271.832943 204.389776 281.416759 120.582811 244.684936 159.6477 160.617685 274.089419 117.208648 349.464446 157.865062"></polygon>
            <text id="FREELY-GIVEN" font-family="WorkSans-SemiBold, Work Sans SemiBold" font-size="20" font-weight="500" letter-spacing="0.1248332" fill="#FFFFFF">
                <tspan x="158.04562" y="198">FREELY GIVEN</tspan>
            </text>
        </g>
    </g>
</svg>