<?xml version="1.0" encoding="UTF-8"?>
<svg width="320px" height="386px" viewBox="0 0 320 386" version="1.1" xmlns="http://www.w3.org/2000/svg" xmlns:xlink="http://www.w3.org/1999/xlink">
    <!-- Generator: Sketch 54.1 (76490) - https://sketchapp.com -->
    <title>Mobile May 20</title>
    <desc>Created with Sketch.</desc>
    <g id="Final" stroke="none" stroke-width="1" fill="none" fill-rule="evenodd">
        <g id="Mobile-May-20" transform="translate(0.000000, -31.000000)">
            <g id="Header" transform="translate(-24.000000, -22.000000)">
                <rect id="Rectangle-Copy-8" x="0" y="0" width="359" height="980"></rect>
                <g id="Artwork" transform="translate(8.000000, 16.720280)">
                    <g id="F" transform="translate(0.000000, 16.279720)">
                        <g id="Group">
                            <polygon id="Fill-1" fill-opacity="0.1" fill="#00ADEE" points="84.6073026 0.000304651163 11.7041316 52.9197349 -7.56476684e-05 120.48984 66.4321938 130.721549 144.803935 102.246566 145.807023 14.6509791"></polygon>
                            <polygon id="Fill-2" fill-opacity="0.2" fill="#00ADEE" points="135.377252 97.5404674 67.2270238 122.300991 9.46019482 113.404415 19.6378321 54.6478686 83.0320912 8.63107209 136.248713 21.3708221"></polygon>
                            <polygon id="Fill-3" fill-opacity="0.3" fill="#00ADEE" points="127.179844 93.4483169 67.9189731 114.979538 17.6866518 107.242922 26.5366725 56.1506366 81.661885 16.135468 127.937833 27.2133459"></polygon>
                            <polygon id="Fill-4" fill-opacity="0.4" fill="#00ADEE" points="120.051564 89.8899151 68.520372 108.612252 24.8406518 101.885555 32.5355326 57.4567523 80.4711907 22.6617814 120.710455 32.2948512"></polygon>
                            <polygon id="Fill-5" fill="#00ADEE" points="113.853069 86.7956494 69.0431731 103.076208 31.0604788 97.2261436 37.7522715 58.5933297 79.4348933 28.3361378 114.426479 36.7125215"></polygon>
                            <path d="M53.1997523,80.1763413 L52.6490373,79.3850099 L49.7683741,81.4155099 L52.805628,85.7819227 L53.6407782,85.1931843 L52.4432756,83.4711436 L54.2157005,82.2213122 L53.6914622,81.4673006 L51.9190373,82.717132 L51.1549959,81.6181029 L53.1997523,80.1763413 Z M59.9679492,80.7323297 L57.7953482,79.6515797 C58.1342497,79.0780738 58.1380321,78.4070797 57.7386124,77.8328122 C57.152343,76.9904517 56.193887,76.8853471 55.3390684,77.4885564 L53.7277731,78.6241436 L56.7650269,82.9905564 L57.5699181,82.4231436 L56.4503326,80.8138238 L57.088799,80.3637017 L59.0760632,81.3614343 L59.9679492,80.7323297 Z M55.0705192,78.8297831 L55.7959803,78.3179692 C56.2294415,78.0125564 56.649286,78.0704401 56.9049751,78.439068 C57.1485606,78.7886552 57.0766953,79.2296378 56.6424777,79.5358122 L55.9170166,80.0468645 L55.0705192,78.8297831 Z M61.3303637,78.629475 L60.5791824,77.5494866 L62.3516073,76.2996552 L61.8447679,75.5707773 L60.072343,76.8198471 L59.3604984,75.7962192 L61.4173585,74.3460797 L60.8840425,73.5791203 L58.0162394,75.6012424 L61.0527368,79.9676552 L63.9833275,77.9021203 L63.4500114,77.135161 L61.3303637,78.629475 Z M65.3767575,75.7764169 L64.6255762,74.6964285 L66.398001,73.4473587 L65.8911617,72.7177192 L64.1187368,73.9675506 L63.4068922,72.943161 L65.4637523,71.4930215 L64.9311927,70.7268238 L62.0626332,72.7489459 L65.0991306,77.1153587 L68.0297212,75.0490622 L67.4964052,74.2828645 L65.3767575,75.7764169 Z M69.4692964,72.8174924 L67.0001565,69.2675448 L66.1150788,69.891318 L69.1515762,74.2577308 L72.1441979,72.1487831 L71.5760839,71.332318 L69.4692964,72.8174924 Z M72.0632549,65.6985564 L72.1971513,67.881382 L72.1290684,67.9301262 L70.1365088,67.056539 L69.1515762,67.7511436 L72.3643326,69.1304517 L73.7002705,71.0512773 L74.5792964,70.4320738 L73.2433585,68.5104866 L73.0481876,65.0039517 L72.0632549,65.6985564 Z M79.410913,63.5027831 L79.8746332,64.1692076 L81.0093482,63.3694983 L81.4178456,63.9567134 C81.3732135,64.2118587 81.2037627,64.7122483 80.7264259,65.0488878 C79.8587472,65.660475 79.036457,65.3284052 78.4728819,64.5172715 C77.8782912,63.662725 77.8639181,62.686318 78.6393067,62.1402308 C79.1537109,61.7769343 79.7135036,61.8386262 80.026685,62.129568 L80.8936073,61.5179808 C80.2596798,60.792911 79.2149855,60.563661 78.0371513,61.3938355 C76.8404052,62.2377192 76.6875969,63.7952483 77.6339492,65.1555157 C78.501628,66.4030622 79.8466435,66.8112948 81.0615451,65.955225 C81.7431306,65.4746378 81.9209026,64.8660971 81.9541876,64.5827715 L82.0222705,64.534789 L82.443628,64.8881843 L83.0132549,64.4860448 L81.3686746,62.1227134 L79.410913,63.5027831 Z M82.2197109,58.5384924 L81.3467368,59.1538878 L84.3832342,63.5203006 L85.2562083,62.9049052 L82.2197109,58.5384924 Z M86.2101254,55.725039 L87.5891824,59.8850506 L87.5210995,59.9330331 L84.097286,57.2147831 L83.1993482,57.8476959 L87.6050684,61.2491262 L88.7700425,60.4280913 L87.1020114,55.0959343 L86.2101254,55.725039 Z M91.3904777,57.4379401 L90.6392964,56.3579517 L92.4117212,55.1081203 L91.9041254,54.3792424 L90.132457,55.6290738 L89.419856,54.6046843 L91.4774725,53.1545448 L90.9441565,52.3875855 L88.0755969,54.4097076 L91.1128508,58.7761203 L94.042685,56.7105855 L93.5093689,55.9436262 L91.3904777,57.4379401 Z M94.8922083,49.6045971 L96.8529959,52.4241436 L96.784913,52.4721262 L92.9828611,50.9503936 L92.1219907,51.557411 L95.1592446,55.9238238 L95.9701876,55.3518413 L93.9965399,52.5140157 L94.0646228,52.4660331 L97.9287057,53.9710099 L98.7335969,53.4035971 L95.6970995,49.0371843 L94.8922083,49.6045971 Z" id="Fill-6" fill="#FFFFFF"></path>
                        </g>
                    </g>
                    <g id="E" transform="translate(47.000000, 295.000000)">
                        <g id="Group">
                            <polygon id="Fill-1" fill-opacity="0.1" fill="#00A550" points="73.4764719 7.60479042e-05 0.000228648649 62.3084054 38.6479476 126.408423 124.540575 94.2568904 140.661829 4.69679461"></polygon>
                            <polygon id="Fill-2" fill-opacity="0.2" fill="#00A550" points="44.5953276 117.568995 10.987787 61.8304443 74.8806032 7.64859401 133.302619 11.7323665 119.284171 89.6115042"></polygon>
                            <polygon id="Fill-3" fill-opacity="0.3" fill="#00A550" points="49.7667503 109.882529 20.5431665 61.4141581 76.1017395 14.2994395 126.903658 17.8508766 114.713637 85.5715353"></polygon>
                            <polygon id="Fill-4" fill-opacity="0.4" fill="#00A550" points="54.263507 103.198679 28.8514962 61.0521701 77.1634314 20.0828826 121.339112 23.171188 110.738961 82.0588826"></polygon>
                            <polygon id="Fill-5" fill="#00A550" points="58.17378 97.3866419 36.0764124 60.7376359 78.0867908 25.1122347 116.500526 27.7974862 107.282937 79.0043425"></polygon>
                            <path d="M54.3010054,71.6619934 L53.7857838,70.4497898 L55.7917946,69.6003347 L55.4442486,68.7820593 L53.4374757,69.6322749 L52.9489297,68.483191 L55.2780973,67.4968497 L54.9122595,66.6359874 L51.6646865,68.011694 L53.7484378,72.9107 L57.0661297,71.5060952 L56.7002919,70.6459934 L54.3010054,71.6619934 Z M59.3815784,64.7431551 L60.7275568,67.9067479 L60.6505784,67.9394485 L57.2200865,65.6587719 L56.2460432,66.071712 L58.3297946,70.970718 L59.2482,70.5821132 L57.8930757,67.3972269 L57.9708162,67.3645263 L61.4660919,69.6421611 L62.3768757,69.2565982 L60.2931243,64.3575922 L59.3815784,64.7431551 Z M65.1404757,62.3042988 L61.4866703,63.8518737 L61.8555568,64.7188198 L63.2091568,64.1454186 L64.9247838,68.1774784 L65.8637676,67.7797479 L64.1489027,63.747688 L65.5093622,63.1712449 L65.1404757,62.3042988 Z M69.3232216,60.5323826 L70.1684595,62.5210353 L68.1891243,63.3590832 L67.3438865,61.371191 L66.3904216,61.7750054 L68.4749351,66.6740114 L69.4276378,66.270197 L68.5526757,64.2123407 L70.5320108,63.3742928 L71.406973,65.4321491 L72.3604378,65.0283347 L70.2759243,60.1293287 L69.3232216,60.5323826 Z M75.8602865,57.7634784 L74.8725243,58.1825024 L76.1079892,61.0875323 C76.4151405,61.8084665 76.2306973,62.4069635 75.5988649,62.6746521 C74.960173,62.9453826 74.3794054,62.6708497 74.0730162,61.9499156 L72.8367892,59.0441251 L71.8414054,59.466191 L73.0623892,62.3362389 C73.6850757,63.7986401 74.866427,64.0495982 75.975373,63.5796222 C77.0843189,63.1104066 77.7039568,62.096688 77.0812703,60.6335263 L75.8602865,57.7634784 Z M82.2555892,59.3095323 C81.8958486,58.4623587 81.1260649,58.3254725 80.0506541,58.3680593 C79.3174541,58.3969575 78.9668595,58.3307958 78.8266216,58.0022689 C78.6924811,57.6866701 78.8632054,57.3665084 79.2488595,57.2030054 C79.7755135,56.980185 80.1512595,57.2014844 80.3379892,57.5437 L81.2076162,57.1756281 C80.8608324,56.3801671 79.970627,55.9406102 78.9036,56.3923347 C77.9989135,56.7756162 77.5248486,57.5870473 77.9028811,58.4760473 C78.2458541,59.2813946 79.0621297,59.3734126 79.9500486,59.3194186 C80.7708973,59.2608617 81.1275892,59.3414725 81.2853568,59.7125862 C81.4492216,60.0973886 81.1938973,60.4122269 80.8006216,60.5787719 C80.1764108,60.8434186 79.7503622,60.6023467 79.5323838,60.1080353 L78.5926378,60.5057659 C79.0080162,61.461688 79.9530973,61.8951611 81.1245405,61.3985683 C82.1077297,60.9825862 82.6458162,60.2266701 82.2555892,59.3095323 L82.2555892,59.3095323 Z M83.0657676,54.7124365 L82.0772432,55.1307 L84.1617568,60.0304665 L85.1495189,59.6114425 L83.0657676,54.7124365 Z M89.8154757,57.635718 L90.8253405,57.2075683 L87.0854108,53.009724 L85.8369892,53.5382569 L86.259227,59.1414665 L87.2690919,58.7140772 L87.1540054,57.4904665 L89.0129189,56.7033707 L89.8154757,57.635718 Z M87.0686432,56.5695263 L86.8567622,54.3200293 L86.9337405,54.2873287 L88.4085243,56.0014485 L87.0686432,56.5695263 Z M94.6529189,54.059185 C94.2924162,53.2120114 93.5226324,53.0751251 92.4472216,53.1169515 C91.7147838,53.1466102 91.363427,53.0804485 91.2231892,52.7519216 C91.0890486,52.4363228 91.259773,52.1161611 91.645427,51.9526581 C92.1720811,51.7298377 92.547827,51.9511371 92.7345568,52.2933527 L93.6041838,51.9252808 C93.2574,51.1298198 92.3671946,50.6902629 91.3009297,51.1419874 C90.3954811,51.5252689 89.9214162,52.3367 90.2994486,53.2257 C90.6424216,54.0302868 91.4586973,54.1223048 92.3466162,54.0690713 C93.1674649,54.0105144 93.5241568,54.0911251 93.6826865,54.4622389 C93.8457892,54.8470413 93.5904649,55.1618796 93.1971892,55.3284246 C92.5729784,55.5930713 92.1476919,55.3519994 91.9289514,54.857688 L90.9892054,55.2554186 C91.4045838,56.2113407 92.3496649,56.6448138 93.5218703,56.148221 C94.5042973,55.7322389 95.0423838,54.9763228 94.6529189,54.059185 L94.6529189,54.059185 Z M97.7213838,48.5046461 L94.0668162,50.0529814 L94.4357027,50.9199275 L95.7900649,50.3465263 L97.5049297,54.3785862 L98.4446757,53.9808557 L96.7290486,49.9487958 L98.0902703,49.3723527 L97.7213838,48.5046461 Z M99.9590919,47.5570892 L98.9705676,47.9753527 L101.055081,52.8751192 L102.043605,52.4560952 L99.9590919,47.5570892 Z M107.217924,48.4065443 L106.221778,48.8286102 C106.264459,49.3396521 105.981697,49.8225563 105.427605,50.0575443 C104.586178,50.414209 103.785908,49.9929036 103.371292,49.0194904 C102.978016,48.0947479 103.165508,47.1730473 103.979497,46.8285503 C104.561789,46.5813946 105.061768,46.7251251 105.381876,47.1266581 L106.384881,46.7023108 C105.70427,45.6269934 104.587703,45.5144425 103.584697,45.9387898 C102.195276,46.5274006 101.719686,47.9753527 102.342373,49.4385144 C102.967346,50.9092808 104.318659,51.5754605 105.812497,50.9427419 C106.871903,50.4940593 107.474773,49.5373766 107.217924,48.4065443 L107.217924,48.4065443 Z" id="Fill-6" fill="#FFFFFF"></path>
                        </g>
                    </g>
                    <g id="R" transform="translate(135.000000, 93.000000)">
                        <g id="Group">
                            <polygon id="Fill-1" fill-opacity="0.1" fill="#EB008B" points="74.2147699 -6.82291667e-05 17.5031514 27.7760255 0.00027283237 76.6731401 36.4479491 130.364718 88.9027006 125.698526 117.578065 80.1746609 117.578065 80.1712495 103.572215 29.1426557"></polygon>
                            <polygon id="Fill-2" fill-opacity="0.2" fill="#EB008B" points="39.3620035 121.86275 7.66843121 75.1742135 22.8890671 32.6551615 72.2028358 8.50203646 97.7303965 33.8437135 109.910316 78.218599 84.9748012 117.805161"></polygon>
                            <polygon id="Fill-3" fill-opacity="0.3" fill="#EB008B" points="41.8959341 114.469642 14.3357723 73.8705589 27.5715526 36.8978557 70.4532983 15.8948714 92.651622 37.9315276 103.242292 76.5178505 81.559622 110.941512"></polygon>
                            <polygon id="Fill-4" fill-opacity="0.4" fill="#EB008B" points="44.0993965 108.040817 20.1344832 72.7376818 31.6432347 40.5867339 68.9319168 22.3238328 88.2341249 41.4859943 97.4442636 75.0397339 78.5895006 104.972552"></polygon>
                            <polygon id="Fill-5" fill="#EB008B" points="46.0154983 102.450597 25.1765618 71.7522479 35.1840532 43.7946646 67.6088162 27.9136437 84.3934636 44.5765708 92.4024578 73.7540917 76.0065965 99.7828365"></polygon>
                            <path d="M41.6246705,66.0225672 L41.1069711,63.8992755 C41.6969711,63.8030724 42.159422,63.4189422 42.3224393,62.8123849 C42.5604855,61.9226766 42.0768902,61.2001297 41.1676763,60.9565516 L39.4549711,60.4973693 L38.2190405,65.1096609 L39.075052,65.3389109 L39.5306821,63.6386401 L40.2093526,63.820812 L40.676578,65.7687547 L41.6246705,66.0225672 Z M40.0920347,61.5433224 L40.8627861,61.7500568 C41.3245549,61.8735516 41.527815,62.1962755 41.4234566,62.5858641 C41.3245549,62.9549839 40.980104,63.1596714 40.5183353,63.0354943 L39.7475838,62.8287599 L40.0920347,61.5433224 Z M43.8578035,65.753062 L44.1633757,64.6122703 L46.0472832,65.1171661 L46.2539538,64.3468589 L44.3693642,63.841963 L44.6592486,62.7605307 L46.8466821,63.3466193 L47.0635838,62.5367391 L44.014,61.7193536 L42.7780694,66.3316453 L45.893815,67.1667703 L46.1107168,66.3568901 L43.8578035,65.753062 Z M51.161526,63.6352286 L49.1070983,66.9832339 L49.0341156,66.9641297 L48.9154335,63.0327651 L47.9605202,62.7769057 L48.1808324,67.7794682 L49.4188092,68.1117443 L52.1103006,63.8890411 L51.161526,63.6352286 Z M52.9888208,68.2004422 L53.2943931,67.0596505 L55.1789827,67.5645464 L55.3849711,66.7942391 L53.5010636,66.2893432 L53.790948,65.2079109 L55.9776994,65.7939995 L56.1946012,64.9841193 L53.1450173,64.1667339 L51.9097688,68.7790255 L55.0255145,69.6141505 L55.2424162,68.8042703 L52.9888208,68.2004422 Z M59.6172832,70.8450047 L59.0995838,68.721713 C59.6895838,68.6255099 60.1520347,68.2413797 60.315052,67.6348224 C60.5530983,66.7451141 60.0695029,66.0225672 59.160289,65.7789891 L57.4475838,65.3198068 L56.2116532,69.9320984 L57.0676647,70.1620307 L57.5232948,68.4617599 L58.2019653,68.6432495 L58.6691908,70.5911922 L59.6172832,70.8450047 Z M58.0846474,66.3657599 L58.8560809,66.5724943 C59.3171676,66.6959891 59.5204277,67.0193953 59.4160694,67.4083016 C59.3171676,67.7774214 58.9727168,67.9821089 58.510948,67.8586141 L57.7401965,67.6518797 L58.0846474,66.3657599 Z M64.1995029,70.7672234 C64.4136763,69.9696245 63.9464509,69.4490359 63.1647861,68.8861453 C62.6313988,68.5026974 62.4206358,68.2625307 62.5031676,67.9527703 C62.5829711,67.6559734 62.8796763,67.5236089 63.2425434,67.6211766 C63.737052,67.7535411 63.8796069,68.1165203 63.8223121,68.4617599 L64.638763,68.6807755 C64.8338382,67.9275255 64.4484624,67.1258328 63.4471676,66.8570099 C62.5966127,66.6298068 61.814948,66.9422964 61.5905434,67.7787859 C61.3872832,68.536812 61.9124855,69.0519422 62.5686474,69.5036193 C63.1791098,69.9143589 63.3864624,70.1681714 63.2930173,70.5175047 C63.1961618,70.8798016 62.8421618,70.9616766 62.4731561,70.8627443 C61.8858844,70.7051349 61.7194566,70.3005359 61.8381387,69.830437 L60.9562081,69.5943641 C60.7208902,70.4990828 61.1485549,71.3260203 62.2487514,71.6207703 C63.1709249,71.8684422 63.9682775,71.6303224 64.1995029,70.7672234 L64.1995029,70.7672234 Z M67.3091098,67.9630047 L66.3814798,67.7146505 L65.1455491,72.3269422 L66.0738613,72.5759786 L67.3091098,67.9630047 Z M70.6199306,71.1881974 L70.6356185,71.128838 C71.0407746,71.0892651 71.4131908,70.8852599 71.5564277,70.3510255 C71.7644624,69.5738953 71.2235723,69.0123693 70.4193988,68.7967651 L68.7728555,68.3553224 L67.5369249,72.9682964 L69.3355723,73.4499943 C70.1131445,73.6580932 70.960289,73.4977547 71.2058382,72.581437 C71.3934104,71.8827703 71.0387283,71.4413276 70.6199306,71.1881974 L70.6199306,71.1881974 Z M69.4256069,69.3419161 L70.1840809,69.5452391 C70.5394451,69.6407599 70.7420231,69.9136766 70.6540347,70.2439057 C70.5619538,70.5864161 70.2795723,70.7440255 69.8710058,70.6348589 L69.1323121,70.4369943 L69.4256069,69.3419161 Z M69.366948,72.646937 L68.5955145,72.4402026 L68.9386012,71.1609057 L69.7359538,71.374463 C70.2372832,71.5088745 70.437815,71.8663953 70.3375491,72.242338 C70.2366012,72.6182807 69.8873757,72.7868068 69.366948,72.646937 L69.366948,72.646937 Z M73.3148324,73.5919109 L74.3195376,69.8420359 L73.3782659,69.589588 L72.1423353,74.202562 L75.3235607,75.0547443 L75.5547861,74.1923276 L73.3148324,73.5919109 Z M77.4973526,74.7695464 L77.8029249,73.6287547 L79.6875145,74.1336505 L79.8935029,73.3633432 L78.0095954,72.8584474 L78.2987977,71.7770151 L80.4862312,72.3631036 L80.7031329,71.5532234 L77.6535491,70.735838 L76.4183006,75.3481297 L79.5333642,76.1832547 L79.7502659,75.3733745 L77.4973526,74.7695464 Z" id="Fill-6" fill="#FFFFFF"></path>
                        </g>
                    </g>
                    <g id="S" transform="translate(215.000000, 237.000000)">
                        <g id="Group">
                            <polygon id="Fill-1" fill-opacity="0.1" fill="#F6931D" points="33.1902636 115.27717 144.993932 56.2686803 0.000236413043 0"></polygon>
                            <polygon id="Fill-2" fill-opacity="0.2" fill="#F6931D" points="133.111024 54.6377361 35.8901005 105.949981 7.02958424 5.70862041"></polygon>
                            <polygon id="Fill-3" fill-opacity="0.3" fill="#F6931D" points="122.77812 53.2196952 38.2383913 97.8386612 13.1415707 10.6721578"></polygon>
                            <polygon id="Fill-4" fill-opacity="0.4" fill="#F6931D" points="113.793005 51.986702 40.2803696 90.7859401 18.4570815 14.989015"></polygon>
                            <polygon id="Fill-5" fill="#F6931D" points="105.97987 50.9144517 42.0553587 84.6530912 23.0792717 18.7429959"></polygon>
                            <path d="M43.9863016,47.1952707 C44.4118451,46.3406585 44.0028505,45.6422912 43.2479049,44.8247673 C42.7325245,44.2668626 42.5481223,43.9464816 42.7136114,43.6142639 C42.8720082,43.2962503 43.2384484,43.2149714 43.6269538,43.4083048 C44.155731,43.6726585 44.2345353,44.1177197 44.0903234,44.494917 L44.9642636,44.931298 C45.3574973,44.1232435 45.1068995,43.1258014 44.0343723,42.5899918 C43.1241821,42.1362503 42.1667092,42.3098558 41.7206766,43.2062912 C41.3156223,44.0190803 41.7916005,44.7237605 42.4307038,45.3866177 C43.0272527,45.9934476 43.2037745,46.3280327 43.0177962,46.7028626 C42.8239375,47.0911075 42.4046984,47.1021551 42.0091005,46.9048762 C41.3810299,46.5915973 41.2856766,46.0936653 41.528394,45.5886313 L40.5843179,45.1175293 C40.1091277,46.0881415 40.4030679,47.1250395 41.5804049,47.7129306 C42.5686114,48.2061279 43.5260842,48.1201143 43.9863016,47.1952707 L43.9863016,47.1952707 Z M49.0557853,45.1853932 L47.1589647,44.2384544 L44.6979049,49.1806857 L45.6143995,49.6383728 L46.4828234,47.8936381 L47.4347799,48.3694748 C48.5285842,48.9155429 49.4537473,48.6109442 49.9502147,47.6150803 C50.4104321,46.6894476 50.1275245,45.7204136 49.0557853,45.1853932 L49.0557853,45.1853932 Z M47.7893995,47.4809306 L46.9075788,47.0406041 L47.6499158,45.5491755 L48.560106,46.0037061 C49.0754864,46.2609578 49.2023614,46.7131211 48.9919538,47.1368762 C48.7626332,47.5961415 48.3402418,47.7555429 47.7893995,47.4809306 L47.7893995,47.4809306 Z M50.8139103,51.1511075 L51.4222799,49.9279782 L53.4396712,50.9348898 L53.8502418,50.1094748 L51.8336386,49.1025633 L52.4104864,47.9433524 L54.7517636,49.1128218 L55.1836114,48.2447946 L51.9195353,46.6152707 L49.4584755,51.557502 L52.7934755,53.2225361 L53.2253234,52.355298 L50.8139103,51.1511075 Z M59.0426603,54.3596517 L58.0418451,53.8593524 C57.6683125,54.2381279 57.097769,54.3407129 56.5406223,54.0629442 C55.6942636,53.6399782 55.4885842,52.7261823 55.9771712,51.7445224 C56.4421168,50.8117878 57.2939918,50.3375293 58.111981,50.7462912 C58.6974973,51.0382639 58.9205136,51.5290939 58.818856,52.0514884 L59.8267636,52.5549442 C60.2168451,51.2947265 59.5564647,50.3398966 58.547769,49.8364408 C57.151356,49.1388626 55.6911114,49.7401687 54.9558668,51.2166041 C54.2174701,52.7001415 54.5988832,54.2120871 56.100894,54.9625361 C57.1663288,55.4936109 58.3247527,55.323951 59.0426603,54.3596517 L59.0426603,54.3596517 Z M62.969481,52.1319782 L61.9765462,51.6364136 L59.5154864,56.5786449 L60.5092092,57.0749986 L62.969481,52.1319782 Z M67.3683397,55.4470531 L67.8143723,54.5506177 L64.5361114,52.9139918 L62.0750516,57.8570122 L63.0262201,58.3312707 L63.9970897,56.3821551 L66.0136929,57.3898558 L66.4392364,56.5360327 L64.4218451,55.5291211 L65.0412473,54.2846857 L67.3683397,55.4470531 Z M70.0358668,55.6601143 L69.0429321,55.1637605 L66.5818723,60.106781 L67.5748071,60.6023456 L70.0358668,55.6601143 Z M74.2408668,61.9469986 L73.2392636,61.4474884 C72.865731,61.8254748 72.2951875,61.928849 71.7380408,61.6502912 C70.8916821,61.2281143 70.6860027,60.3135293 71.1753777,59.3318694 C71.6395353,58.3991347 72.4921984,57.9256653 73.3101875,58.3336381 C73.8949158,58.6264 74.1179321,59.1164408 74.0162745,59.6388354 L75.0249701,60.1422912 C75.4142636,58.8820735 74.7538832,57.9272435 73.7451875,57.4237878 C72.3487745,56.7269986 70.8885299,57.3275156 70.1532853,58.803951 C69.4148886,60.2874884 69.7970897,61.8002231 71.2991005,62.549883 C72.3637473,63.0817469 73.5229592,62.911298 74.2408668,61.9469986 L74.2408668,61.9469986 Z" id="Fill-6" fill="#FFFFFF"></path>
                        </g>
                    </g>
                    <g id="I" transform="translate(209.000000, 0.279720)">
                        <g id="Group">
                            <polygon id="Fill-1" fill-opacity="0.1" fill="#BE00DA" points="63.0616167 -0.000299428571 0.000148768473 73.332752 68.0297399 130.757912 150.649799 99.1899063"></polygon>
                            <polygon id="Fill-2" fill-opacity="0.2" fill="#BE00DA" points="140.82446 94.7796229 68.9811887 122.230486 9.8248931 72.2955314 64.6609522 8.52772571"></polygon>
                            <polygon id="Fill-3" fill-opacity="0.3" fill="#BE00DA" points="132.281058 90.9447663 69.8087133 114.815212 18.3682946 71.3928291 66.0523094 15.9431491"></polygon>
                            <polygon id="Fill-4" fill-opacity="0.4" fill="#BE00DA" points="124.851933 87.6101051 70.5283808 108.367242 25.7974202 70.6085509 67.2614251 22.391568"></polygon>
                            <polygon id="Fill-5" fill="#BE00DA" points="118.391885 84.710364 71.1534315 102.759918 32.2579143 69.9268269 68.3134414 27.9985926"></polygon>
                            <path d="M59.0484384,57.9768571 L58.1409507,57.4498629 L55.5382463,61.9869543 L56.445734,62.5139486 L59.0484384,57.9768571 Z M63.3590049,60.4815771 L61.6779212,63.4107371 L61.6072562,63.3695657 L61.3736897,59.3280286 L60.4795911,58.80852 L57.8761429,63.3456114 L58.7196601,63.8351771 L60.4111576,60.8858057 L60.4818227,60.9269771 L60.7555567,65.0186686 L61.5923793,65.5044914 L64.1950837,60.9674 L63.3590049,60.4815771 Z M68.1426552,64.35768 L68.6142512,63.535 L65.6195419,61.79532 L63.0168374,66.3324114 L63.8856453,66.8369486 L64.9121478,65.0478629 L66.7546453,66.11832 L67.2039261,65.3345657 L65.3614286,64.2641086 L66.0167537,63.1225371 L68.1426552,64.35768 Z M69.1699015,69.9936743 C70.4716256,70.7497314 72.0195616,70.31032 72.782,68.9808571 C73.5444384,67.6521429 73.1487143,66.0831371 71.8410394,65.3233371 C70.5259261,64.5590457 68.9846847,65.0022 68.2222463,66.3316629 C67.459064,67.6611257 67.8488374,69.2263886 69.1699015,69.9936743 L69.1699015,69.9936743 Z M69.6563744,69.1447943 C68.8641823,68.6844229 68.6425172,67.7082857 69.129734,66.8586571 C69.6169507,66.0097771 70.5675813,65.71484 71.3538227,66.1714686 C72.1333695,66.6243543 72.3557783,67.6004914 71.8678177,68.45012 C71.380601,69.2997486 70.4359212,69.5984286 69.6563744,69.1447943 L69.6563744,69.1447943 Z M76.047468,73.9034629 L76.1017685,71.5057886 C76.750399,71.5716629 77.3462167,71.2961886 77.6883842,70.6995771 C78.1904778,69.8244971 77.8847586,68.9209714 76.995867,68.4044571 L75.320734,67.4313143 L72.7180296,71.9684057 L73.5548522,72.4549771 L74.5144089,70.7826686 L75.1779163,71.1681829 L75.1206404,73.3644914 L76.047468,73.9034629 Z M75.6971182,68.7211029 L76.4513744,69.1590171 C76.9021429,69.4210171 77.0248768,69.8207543 76.8054433,70.2040229 C76.5971675,70.56708 76.1768966,70.6861029 75.7253842,70.4241029 L74.9711281,69.98544 L75.6971182,68.7211029 Z M84.5897537,72.8172857 L83.4442365,72.1510571 L80.4785369,74.4903429 L80.4071281,74.4491714 L80.9248424,70.6876 L79.7785813,70.0213714 L77.1758768,74.5584629 L78.0186502,75.0487771 L79.8113103,71.92424 L79.8827192,71.9654114 L79.3761626,75.3182629 L80.233069,75.8168114 L82.8722217,73.7020971 L82.9428867,73.7432686 L81.1502266,76.8678057 L81.9870493,77.3543771 L84.5897537,72.8172857 Z M84.7176946,77.8791257 L85.3618621,76.7562686 L87.2043596,77.8267257 L87.6387635,77.0691714 L85.796266,75.9987143 L86.4069606,74.9349943 L88.5455074,76.1776229 L89.0029704,75.3811429 L86.0209064,73.6482 L83.418202,78.1852914 L86.4642365,79.9556629 L86.9209557,79.1591829 L84.7176946,77.8791257 Z M91.7083251,76.9531429 L90.227335,76.0922857 L87.6246305,80.6293771 L89.1056207,81.4902343 C90.4973498,82.2986914 91.8481675,81.9783029 92.6820148,80.5260743 C93.5039606,79.09256 93.100798,77.7616 91.7083251,76.9531429 L91.7083251,76.9531429 Z M89.5839113,80.6712971 L88.9843744,80.3232114 L90.6438867,77.4307314 L91.2426798,77.7795657 C92.0809901,78.2661371 92.3167882,79.1120229 91.8146946,79.9878514 C91.2865665,80.9085943 90.4155271,81.1541257 89.5839113,80.6712971 L89.5839113,80.6712971 Z" id="Fill-6" fill="#FFFFFF"></path>
                        </g>
                    </g>
                </g>
            </g>
        </g>
    </g>
</svg>